<?xml version="1.0" encoding="utf-8"?>
<!-- Generator: Adobe Illustrator 23.0.6, SVG Export Plug-In . SVG Version: 6.00 Build 0)  -->
<svg version="1.1"
	 id="svg2" inkscape:version="0.43" sodipodi:docbase="C:\Documents and Settings\David Nelson\Archives\Svg" sodipodi:docname="Semaphore Victor.svg" sodipodi:version="0.32" xmlns:cc="http://web.resource.org/cc/" xmlns:dc="http://purl.org/dc/elements/1.1/" xmlns:inkscape="http://www.inkscape.org/namespaces/inkscape" xmlns:rdf="http://www.w3.org/1999/02/22-rdf-syntax-ns#" xmlns:sodipodi="http://inkscape.sourceforge.net/DTD/sodipodi-0.dtd" xmlns:svg="http://www.w3.org/2000/svg"
	 xmlns="http://www.w3.org/2000/svg" xmlns:xlink="http://www.w3.org/1999/xlink" x="0px" y="0px" viewBox="0 0 600 500"
	 style="enable-background:new 0 0 600 500;" xml:space="preserve">
<style type="text/css">
	.st0{fill-rule:evenodd;clip-rule:evenodd;fill:#FFFFFF;}
	.st1{fill-rule:evenodd;clip-rule:evenodd;fill:#FFFFFF;stroke:#FFFFFF;}
	.st2{fill-rule:evenodd;clip-rule:evenodd;fill:#FCBB03;}
	.st3{fill-rule:evenodd;clip-rule:evenodd;fill:#FD3E1D;}
	.st4{fill-rule:evenodd;clip-rule:evenodd;fill:#FCBB03;fill-opacity:0;stroke:#FFFFFF;stroke-linejoin:round;}
</style>
<sodipodi:namedview  bordercolor="#666666" borderopacity="1.0" id="base" inkscape:current-layer="layer5" inkscape:cx="277.85308" inkscape:cy="120.82915" inkscape:document-units="px" inkscape:grid-points="true" inkscape:pageopacity="0.0" inkscape:pageshadow="2" inkscape:window-height="540" inkscape:window-width="756" inkscape:window-x="365" inkscape:window-y="436" inkscape:zoom="0.5" pagecolor="#ffffff" showgrid="true">
	</sodipodi:namedview>
<g id="layer1" inkscape:groupmode="layer" inkscape:label="Head and Torso">
	<path id="path7712" sodipodi:cx="250" sodipodi:cy="200" sodipodi:rx="25" sodipodi:ry="25" sodipodi:type="arc" class="st0" d="
		M325,210c0,13.8-11.2,25-25,25s-25-11.2-25-25s11.2-25,25-25S325,196.2,325,210z"/>
	<path id="rect7718" class="st0" d="M285,240h30c11,0,20,9.6,20,21.3v117.3c0,11.8-9,21.3-20,21.3h-30c-11,0-20-9.6-20-21.3V261.3
		C265,249.6,274,240,285,240z"/>
</g>
<g id="layer4" inkscape:groupmode="layer" inkscape:label="Left Hand">
	<g id="g12189">
		<path id="rect7994" class="st0" d="M357.1,242.9l35.4,35.4c3.9,3.9,3.9,10.2,0,14.1h0c-3.9,3.9-10.2,3.9-14.1,0l-35.4-35.4
			c-3.9-3.9-3.9-10.2,0-14.1l0,0C346.8,239,353.2,239,357.1,242.9z"/>
		
			<rect id="rect7996" x="451.1" y="256.1" transform="matrix(0.7071 -0.7071 0.7071 0.7071 -118.1981 426.7771)" class="st1" width="10" height="200"/>
		<path id="path8000" class="st2" d="M396,430.3l63.6-63.6l63.6,63.6L459.6,494L396,430.3z"/>
		<path id="path8002" class="st3" d="M459.6,366.7l63.6,63.6L459.6,494V366.7z"/>
		<path id="path11844" class="st4" d="M396,430.3l63.6-63.6l63.6,63.6L459.6,494L396,430.3z"/>
	</g>
</g>
<g id="layer5" inkscape:groupmode="layer" inkscape:label="Right Hand">
	<g id="g12016">
		<path id="rect7915" class="st0" d="M240,250v-50c0-5.5,4.5-10,10-10l0,0c5.5,0,10,4.5,10,10v50c0,5.5-4.5,10-10,10l0,0
			C244.5,260,240,255.5,240,250z"/>
		<rect id="rect7917" x="245" class="st1" width="10" height="200"/>
		<path id="path7921" class="st2" d="M155,90V0h90v90H155z"/>
		<path id="path7923" class="st3" d="M155,0h90v90L155,0z"/>
		<path id="path12003" class="st4" d="M155,90V0h90v90H155z"/>
	</g>
</g>
</svg>
