<svg width="246" height="243" viewBox="0 0 246 243" fill="none" xmlns="http://www.w3.org/2000/svg">
<path d="M144.054 107.899L123 44.3136H222.865C226.897 44.3149 230.763 45.9169 233.613 48.7676C236.464 51.6182 238.066 55.4842 238.067 59.5156V219.228C238.066 223.26 236.464 227.126 233.613 229.976C230.763 232.827 226.897 234.429 222.865 234.43H132.09L171.912 192.039L144.054 107.899Z" fill="white"/>
<path d="M176.928 198.943L137.107 241.335L123 198.943H176.928Z" fill="#252525"/>
<path d="M156.594 183.059L162.11 166.646H194.263L199.779 183.059H219.151L186.595 88.8867H170.586L137.895 183.059H156.594ZM178.254 116.869L188.478 149.157H168.164L178.254 116.869Z" fill="#252525"/>
<path d="M163.451 164.085L172.392 191.082H17.3885C15.3913 191.083 13.4136 190.69 11.5683 189.926C9.72306 189.162 8.04642 188.042 6.63421 186.63C5.222 185.218 4.1019 183.541 3.33791 181.696C2.57392 179.85 2.18101 177.873 2.18164 175.876V16.163C2.18164 14.1662 2.57501 12.189 3.33929 10.3443C4.10356 8.49959 5.22376 6.82351 6.63591 5.41181C8.04806 4.00011 9.72449 2.88044 11.5694 2.11674C13.4144 1.35305 15.3917 0.960307 17.3885 0.960938H109.446L123.481 43.3527L144.535 106.938L163.451 164.085Z" fill="#FF3C00"/>
<path d="M171.911 192.039L9.63281 191.708L110.685 4.70935L124.441 48.605L171.911 192.039Z" fill="#FCBB03"/>
<path d="M225.979 42.3918H129.597L116.653 3.30563C116.337 2.34258 115.724 1.50422 114.902 0.91049C114.081 0.316756 113.093 -0.00193463 112.079 8.83625e-06H20.0211C14.7128 0.00509714 9.62326 2.11609 5.86967 5.86968C2.11609 9.62327 0.00508831 14.7128 0 20.0211L0 179.734C0.00508831 185.042 2.11609 190.132 5.86967 193.885C9.62326 197.639 14.7128 199.75 20.0211 199.755H117.624L130.635 238.851C130.951 239.813 131.563 240.651 132.383 241.244C133.204 241.838 134.191 242.157 135.204 242.156H225.979C231.289 242.151 236.38 240.039 240.134 236.283C243.888 232.528 245.997 227.436 246 222.126V62.4129C245.995 57.1045 243.884 52.015 240.13 48.2614C236.377 44.5079 231.287 42.3969 225.979 42.3918V42.3918ZM9.6334 179.734V20.0211C9.63721 17.2673 10.7329 14.6274 12.6801 12.6801C14.6274 10.7329 17.2673 9.63722 20.0211 9.63341H108.586L161.438 169.303V169.356L168.356 190.122H20.0211C17.2673 190.118 14.6274 189.022 12.6801 187.075C10.7329 185.128 9.63721 182.488 9.6334 179.734V179.734ZM127.805 199.755H163.917L137.251 228.146L127.805 199.755ZM236.391 222.126C236.387 224.879 235.291 227.519 233.344 229.467C231.397 231.414 228.757 232.509 226.003 232.513H146.336L178.528 198.237C178.672 198.087 178.806 197.926 178.927 197.756C179.372 197.14 179.665 196.426 179.781 195.674C179.897 194.923 179.833 194.154 179.594 193.432L132.787 52.0252H225.998C228.753 52.0277 231.394 53.1228 233.342 55.0702C235.291 57.0176 236.387 59.6582 236.391 62.4129V222.126Z" fill="#252525"/>
<path d="M116.631 10.2623L108.132 5.72632L10.0487 189.497L18.5474 194.033L116.631 10.2623Z" fill="#252525"/>
</svg>
