<svg width="600" height="315" viewBox="0 0 600 315" fill="none" xmlns="http://www.w3.org/2000/svg">
<path fill-rule="evenodd" clip-rule="evenodd" d="M275 25C275 38.8 286.2 50 300 50C313.8 50 325 38.8 325 25C325 11.2 313.8 0 300 0C286.2 0 275 11.2 275 25Z" fill="#252525"/>
<path fill-rule="evenodd" clip-rule="evenodd" d="M315 55H285C274 55 265 64.6 265 76.3V193.6C265 205.4 274 214.9 285 214.9H315C326 214.9 335 205.3 335 193.6V76.3C335 64.6 326 55 315 55Z" fill="#252525"/>
<path fill-rule="evenodd" clip-rule="evenodd" d="M240 65V115C240 120.5 244.5 125 250 125C255.5 125 260 120.5 260 115V65C260 59.5 255.5 55 250 55C244.5 55 240 59.5 240 65Z" fill="#252525"/>
<path d="M245 115H255V315H245V115Z" fill="#252525"/>
<path fill-rule="evenodd" clip-rule="evenodd" d="M345 225H255V315H345V225Z" fill="#FCBB03"/>
<path fill-rule="evenodd" clip-rule="evenodd" d="M255 225V315H345L255 225Z" fill="#FD3E1D"/>
<path fill-rule="evenodd" clip-rule="evenodd" d="M342.901 72.1002L378.301 107.5C382.201 111.4 388.501 111.4 392.401 107.5C396.301 103.6 396.301 97.3002 392.401 93.4002L357.001 58.0002C353.101 54.1002 346.801 54.1002 342.901 58.0002C339.001 61.8002 339.001 68.2002 342.901 72.1002Z" fill="#252525"/>
<path d="M388.894 96.8686L530.314 238.289L523.243 245.36L381.823 103.94L388.894 96.8686Z" fill="#252525"/>
<path fill-rule="evenodd" clip-rule="evenodd" d="M396.001 245.3L459.601 309L523.201 245.4L459.601 181.8L396.001 245.3Z" fill="#FCBB03"/>
<path fill-rule="evenodd" clip-rule="evenodd" d="M459.601 309L523.201 245.4L459.601 181.8V309Z" fill="#FD3E1D"/>
</svg>
