<svg width="600" height="315" viewBox="0 0 600 315" fill="none" xmlns="http://www.w3.org/2000/svg">
<g clip-path="url(#clip0)">
<path fill-rule="evenodd" clip-rule="evenodd" d="M325 25C325 38.8 313.8 50 300 50C286.2 50 275 38.8 275 25C275 11.2 286.2 0 300 0C313.8 0 325 11.2 325 25Z" fill="#252525"/>
<path fill-rule="evenodd" clip-rule="evenodd" d="M285 55H315C326 55 335 64.6 335 76.3V193.6C335 205.4 326 214.9 315 214.9H285C274 214.9 265 205.3 265 193.6V76.3C265 64.6 274 55 285 55Z" fill="#252525"/>
<path fill-rule="evenodd" clip-rule="evenodd" d="M360 65V115C360 120.5 355.5 125 350 125C344.5 125 340 120.5 340 115V65C340 59.5 344.5 55 350 55C355.5 55 360 59.5 360 65Z" fill="#252525"/>
<path d="M355 115H345V315H355V115Z" fill="#252525" stroke="#252525"/>
<path fill-rule="evenodd" clip-rule="evenodd" d="M255 225H345V315H255V225Z" fill="#FCBB03"/>
<path fill-rule="evenodd" clip-rule="evenodd" d="M345 225V315H255L345 225Z" fill="#FD3E1D"/>
<path fill-rule="evenodd" clip-rule="evenodd" d="M255 225H345V315H255V225Z" stroke="#252525" stroke-linejoin="round"/>
<path fill-rule="evenodd" clip-rule="evenodd" d="M257.1 72.0999L221.7 107.5C217.8 111.4 211.5 111.4 207.6 107.5C203.7 103.6 203.7 97.3 207.6 93.4L243 58C246.9 54.1 253.2 54.1 257.1 58C261 61.8 261 68.1999 257.1 72.0999Z" fill="#252525"/>
<path d="M211.106 96.8685L69.6863 238.288L76.7573 245.359L218.177 103.939L211.106 96.8685Z" fill="#252525" stroke="#252525"/>
<path fill-rule="evenodd" clip-rule="evenodd" d="M204 245.3L140.4 309L76.8 245.4L140.4 181.8L204 245.3Z" fill="#FCBB03"/>
<path fill-rule="evenodd" clip-rule="evenodd" d="M140.4 309L76.8 245.4L140.4 181.8V309Z" fill="#FD3E1D"/>
<path fill-rule="evenodd" clip-rule="evenodd" d="M204 245.3L140.4 309L76.8 245.4L140.4 181.8L204 245.3Z" stroke="#252525" stroke-linejoin="round"/>
</g>
<defs>
<clipPath id="clip0">
<rect width="600" height="315" fill="white"/>
</clipPath>
</defs>
</svg>
