<svg width="600" height="316" viewBox="0 0 600 316" fill="none" xmlns="http://www.w3.org/2000/svg">
<g clip-path="url(#clip0)">
<path d="M300 50.3C313.807 50.3 325 39.1072 325 25.3C325 11.4929 313.807 0.300049 300 0.300049C286.193 0.300049 275 11.4929 275 25.3C275 39.1072 286.193 50.3 300 50.3Z" fill="#252525"/>
<path d="M285 55.3H315C326 55.3 335 64.3 335 75.3V195.3C335 206.3 326 215.3 315 215.3H285C274 215.3 265 206.3 265 195.3V75.3C265 64.3 274 55.3 285 55.3Z" fill="#252525"/>
<path d="M364.8 65.3V115.3C364.8 120.8 360.3 125.3 354.8 125.3C349.3 125.3 344.8 120.8 344.8 115.3V65.3C344.8 59.8 349.3 55.3 354.8 55.3C360.2 55.3 364.8 59.8 364.8 65.3Z" fill="#252525"/>
<path d="M360.2 114.3V314.8H259.2V223.8H349.2V113.8L360.2 114.3Z" fill="#252525"/>
<path d="M349.2 224.8V313.8H260.2V224.8H349.2Z" fill="#FCBB03"/>
<path d="M349.2 224.8L260.2 313.8H349.2V224.8Z" fill="#FD3E1D"/>
<path d="M200 55.3H250C255.5 55.3 260 59.8 260 65.3C260 70.8 255.5 75.3 250 75.3H200C194.5 75.3 190 70.8 190 65.3C190 59.8 194.5 55.3 200 55.3Z" fill="#252525"/>
<path d="M0 59.8H200.5V70.8H90.5V160.8H-0.5L0 59.8Z" fill="#252525"/>
<path d="M0.5 70.8H89.5V159.8H0.5V70.8Z" fill="#FCBB03"/>
<path d="M0.5 70.8H89.5L0.5 159.8V70.8Z" fill="#FD3E1D"/>
</g>
<defs>
<clipPath id="clip0">
<rect y="0.300049" width="600" height="315" fill="white"/>
</clipPath>
</defs>
</svg>
