<svg width="600" height="600" viewBox="0 0 600 600" fill="none" xmlns="http://www.w3.org/2000/svg">
<rect width="600" height="600" transform="matrix(-1 0 0 1 600 0)" fill="white"/>
<path d="M182 192.3C168.193 192.3 157 181.107 157 167.3C157 153.493 168.193 142.3 182 142.3C195.807 142.3 207 153.493 207 167.3C207 181.107 195.807 192.3 182 192.3Z" fill="#252525"/>
<path d="M197 197.3H167C156 197.3 147 206.3 147 217.3V337.3C147 348.3 156 357.3 167 357.3H197C208 357.3 217 348.3 217 337.3V217.3C217 206.3 208 197.3 197 197.3Z" fill="#252525"/>
<path d="M117.199 207.3V257.3C117.199 262.8 121.699 267.3 127.199 267.3C132.699 267.3 137.199 262.8 137.199 257.3V207.3C137.199 201.8 132.699 197.3 127.199 197.3C121.799 197.3 117.199 201.8 117.199 207.3Z" fill="#252525"/>
<path d="M121.799 256.3L121.799 456.8H222.799V365.8H132.799V255.8L121.799 256.3Z" fill="#252525"/>
<path d="M132.799 366.8V455.8H221.799V366.8H132.799Z" fill="#FCBB03"/>
<path d="M132.799 366.8L221.799 455.8H132.799V366.8Z" fill="#FD3E1D"/>
<path d="M282 197.3H232C226.5 197.3 222 201.8 222 207.3C222 212.8 226.5 217.3 232 217.3H282C287.5 217.3 292 212.8 292 207.3C292 201.8 287.5 197.3 282 197.3Z" fill="#252525"/>
<path d="M482 201.8H281.5V212.8H391.5V302.8H482.5L482 201.8Z" fill="#252525"/>
<path d="M481.5 212.8H392.5V301.8H481.5V212.8Z" fill="#FCBB03"/>
<path d="M481.5 212.8H392.5L481.5 301.8V212.8Z" fill="#FD3E1D"/>
</svg>
