<svg width="600" height="600" viewBox="0 0 600 600" fill="none" xmlns="http://www.w3.org/2000/svg">
<rect width="600" height="600" fill="white"/>
<path d="M418 192.3C431.807 192.3 443 181.107 443 167.3C443 153.493 431.807 142.3 418 142.3C404.193 142.3 393 153.493 393 167.3C393 181.107 404.193 192.3 418 192.3Z" fill="#252525"/>
<path d="M403 197.3H433C444 197.3 453 206.3 453 217.3V337.3C453 348.3 444 357.3 433 357.3H403C392 357.3 383 348.3 383 337.3V217.3C383 206.3 392 197.3 403 197.3Z" fill="#252525"/>
<path d="M482.8 207.3V257.3C482.8 262.8 478.3 267.3 472.8 267.3C467.3 267.3 462.8 262.8 462.8 257.3V207.3C462.8 201.8 467.3 197.3 472.8 197.3C478.2 197.3 482.8 201.8 482.8 207.3Z" fill="#252525"/>
<path d="M478.2 256.3V456.8H377.2V365.8H467.2V255.8L478.2 256.3Z" fill="#252525"/>
<path d="M467.2 366.8V455.8H378.2V366.8H467.2Z" fill="#FCBB03"/>
<path d="M467.2 366.8L378.2 455.8H467.2V366.8Z" fill="#FD3E1D"/>
<path d="M318 197.3H368C373.5 197.3 378 201.8 378 207.3C378 212.8 373.5 217.3 368 217.3H318C312.5 217.3 308 212.8 308 207.3C308 201.8 312.5 197.3 318 197.3Z" fill="#252525"/>
<path d="M118 201.8H318.5V212.8H208.5V302.8H117.5L118 201.8Z" fill="#252525"/>
<path d="M118.5 212.8H207.5V301.8H118.5V212.8Z" fill="#FCBB03"/>
<path d="M118.5 212.8H207.5L118.5 301.8V212.8Z" fill="#FD3E1D"/>
</svg>
