<svg width="600" height="431" viewBox="0 0 600 431" fill="none" xmlns="http://www.w3.org/2000/svg">
<g clip-path="url(#clip0)">
<path fill-rule="evenodd" clip-rule="evenodd" d="M275 140.3C275 154.1 286.2 165.3 300 165.3C313.8 165.3 325 154.1 325 140.3C325 126.5 313.8 115.3 300 115.3C286.2 115.3 275 126.5 275 140.3Z" fill="#252525"/>
<path fill-rule="evenodd" clip-rule="evenodd" d="M315 170.3H285C274 170.3 265 179.9 265 191.6V309C265 320.8 274 330.3 285 330.3H315C326 330.3 335 320.7 335 309V191.6C335 179.9 326 170.3 315 170.3Z" fill="#252525"/>
<path fill-rule="evenodd" clip-rule="evenodd" d="M240 180.3V230.3C240 235.8 244.5 240.3 250 240.3C255.5 240.3 260 235.8 260 230.3V180.3C260 174.8 255.5 170.3 250 170.3C244.5 170.3 240 174.8 240 180.3Z" fill="#252525"/>
<path d="M245 230.3H255V430.3H245V230.3Z" fill="#252525"/>
<path fill-rule="evenodd" clip-rule="evenodd" d="M345 340.3H255V430.3H345V340.3Z" fill="#FCBB03"/>
<path fill-rule="evenodd" clip-rule="evenodd" d="M255 340.3V430.3H345L255 340.3Z" fill="#FD3E1D"/>
<path fill-rule="evenodd" clip-rule="evenodd" d="M357.099 187.4L392.399 152C396.299 148.1 396.299 141.8 392.399 137.9C388.499 134 382.199 134 378.299 137.9L342.899 173.3C338.999 177.2 338.999 183.5 342.899 187.4C346.799 191.3 353.199 191.3 357.099 187.4Z" fill="#252525"/>
<path d="M523.298 -0.00752318L530.369 7.06348L388.949 148.483L381.878 141.412L523.298 -0.00752318Z" fill="#252525"/>
<path fill-rule="evenodd" clip-rule="evenodd" d="M530.3 134.4L594 70.6999L530.3 7.09985L466.7 70.6999L530.3 134.4Z" fill="#FCBB03"/>
<path fill-rule="evenodd" clip-rule="evenodd" d="M594 70.6999L530.3 7.09985L466.7 70.6999H594Z" fill="#FD3E1D"/>
</g>
<defs>
<clipPath id="clip0">
<rect width="600" height="430.3" transform="matrix(-1 0 0 1 600 0)" fill="white"/>
</clipPath>
</defs>
</svg>
