<svg width="600" height="500" viewBox="0 0 600 500" fill="none" xmlns="http://www.w3.org/2000/svg">
<path fill-rule="evenodd" clip-rule="evenodd" d="M275 210C275 223.8 286.2 235 300 235C313.8 235 325 223.8 325 210C325 196.2 313.8 185 300 185C286.2 185 275 196.2 275 210Z" fill="#252525"/>
<path fill-rule="evenodd" clip-rule="evenodd" d="M315 240H285C274 240 265 249.6 265 261.3V378.6C265 390.4 274 399.9 285 399.9H315C326 399.9 335 390.3 335 378.6V261.3C335 249.6 326 240 315 240Z" fill="#252525"/>
<path fill-rule="evenodd" clip-rule="evenodd" d="M240 250V300C240 305.5 244.5 310 250 310C255.5 310 260 305.5 260 300V250C260 244.5 255.5 240 250 240C244.5 240 240 244.5 240 250Z" fill="#252525"/>
<path d="M245 300H255V500H245V300Z" fill="#252525"/>
<path fill-rule="evenodd" clip-rule="evenodd" d="M345 410H255V500H345V410Z" fill="#FCBB03"/>
<path fill-rule="evenodd" clip-rule="evenodd" d="M255 410V500H345L255 410Z" fill="#FD3E1D"/>
<path fill-rule="evenodd" clip-rule="evenodd" d="M360 250V200C360 194.5 355.5 190 350 190C344.5 190 340 194.5 340 200V250C340 255.5 344.5 260 350 260C355.5 260 360 255.5 360 250Z" fill="#252525"/>
<path d="M345 0H355V200H345V0Z" fill="#252525"/>
<path fill-rule="evenodd" clip-rule="evenodd" d="M445 90V0H355V90H445Z" fill="#FCBB03"/>
<path fill-rule="evenodd" clip-rule="evenodd" d="M445 0H355V90L445 0Z" fill="#FD3E1D"/>
</svg>
