<svg width="600" height="600" viewBox="0 0 600 600" fill="none" xmlns="http://www.w3.org/2000/svg">
<rect width="600" height="600" fill="white"/>
<path fill-rule="evenodd" clip-rule="evenodd" d="M368 260C368 273.8 356.8 285 343 285C329.2 285 318 273.8 318 260C318 246.2 329.2 235 343 235C356.8 235 368 246.2 368 260Z" fill="#252525"/>
<path fill-rule="evenodd" clip-rule="evenodd" d="M328 290H358C369 290 378 299.6 378 311.3V428.6C378 440.4 369 449.9 358 449.9H328C317 449.9 308 440.3 308 428.6V311.3C308 299.6 317 290 328 290Z" fill="#252525"/>
<path fill-rule="evenodd" clip-rule="evenodd" d="M403 300V350C403 355.5 398.5 360 393 360C387.5 360 383 355.5 383 350V300C383 294.5 387.5 290 393 290C398.5 290 403 294.5 403 300Z" fill="#252525"/>
<path d="M398 350H388V550H398V350Z" fill="#252525"/>
<path fill-rule="evenodd" clip-rule="evenodd" d="M298 460H388V550H298V460Z" fill="#FCBB03"/>
<path fill-rule="evenodd" clip-rule="evenodd" d="M388 460V550H298L388 460Z" fill="#FD3E1D"/>
<path fill-rule="evenodd" clip-rule="evenodd" d="M283 300V250C283 244.5 287.5 240 293 240C298.5 240 303 244.5 303 250V300C303 305.5 298.5 310 293 310C287.5 310 283 305.5 283 300Z" fill="#252525"/>
<path d="M298 50H288V250H298V50Z" fill="#252525"/>
<path fill-rule="evenodd" clip-rule="evenodd" d="M198 140V50H288V140H198Z" fill="#FCBB03"/>
<path fill-rule="evenodd" clip-rule="evenodd" d="M198 50H288V140L198 50Z" fill="#FD3E1D"/>
</svg>
