<svg width="600" height="600" viewBox="0 0 600 600" fill="none" xmlns="http://www.w3.org/2000/svg">
<rect width="600" height="600" fill="white"/>
<path fill-rule="evenodd" clip-rule="evenodd" d="M208 225.3C208 239.1 196.8 250.3 183 250.3C169.2 250.3 158 239.1 158 225.3C158 211.5 169.2 200.3 183 200.3C196.8 200.3 208 211.5 208 225.3Z" fill="#252525"/>
<path fill-rule="evenodd" clip-rule="evenodd" d="M168 255.3H198C209 255.3 218 264.9 218 276.6V394C218 405.8 209 415.3 198 415.3H168C157 415.3 148 405.7 148 394V276.6C148 264.9 157 255.3 168 255.3Z" fill="#252525"/>
<path fill-rule="evenodd" clip-rule="evenodd" d="M225.9 258.2L261.3 222.8C265.2 218.9 271.5 218.9 275.4 222.8C279.3 226.7 279.3 233 275.4 236.9L240 272.3C236.1 276.2 229.8 276.2 225.9 272.3C222 268.5 222 262.1 225.9 258.2Z" fill="#252525"/>
<path d="M406.228 84.9467L264.808 226.367L271.879 233.438L413.299 92.0177L406.228 84.9467Z" fill="#252525"/>
<path fill-rule="evenodd" clip-rule="evenodd" d="M413.299 219.4L349.699 155.8L413.299 92.2L476.999 155.7L413.299 219.4Z" fill="#FCBB03"/>
<path fill-rule="evenodd" clip-rule="evenodd" d="M349.699 155.7L413.299 92.1L476.999 155.7H349.699Z" fill="#FD3E1D"/>
<path fill-rule="evenodd" clip-rule="evenodd" d="M143 265.3V315.3C143 320.8 138.5 325.3 133 325.3C127.5 325.3 123 320.8 123 315.3V265.3C123 259.8 127.5 255.3 133 255.3C138.5 255.3 143 259.8 143 265.3Z" fill="#252525"/>
<path d="M138 315.3H128V515.3H138V315.3Z" fill="#252525"/>
<path fill-rule="evenodd" clip-rule="evenodd" d="M228 425.3V515.3H138V425.3H228Z" fill="#FCBB03"/>
<path fill-rule="evenodd" clip-rule="evenodd" d="M228 515.3H138V425.3L228 515.3Z" fill="#FD3E1D"/>
</svg>
