<svg width="600" height="315" viewBox="0 0 600 315" fill="none" xmlns="http://www.w3.org/2000/svg">
<path fill-rule="evenodd" clip-rule="evenodd" d="M275 25C275 38.8 286.2 50 300 50C313.8 50 325 38.8 325 25C325 11.2 313.8 0 300 0C286.2 0 275 11.2 275 25Z" fill="#252525"/>
<path fill-rule="evenodd" clip-rule="evenodd" d="M315 55H285C274 55 265 64.6 265 76.3V193.6C265 205.4 274 214.9 285 214.9H315C326 214.9 335 205.3 335 193.6V76.3C335 64.6 326 55 315 55Z" fill="#252525"/>
<path fill-rule="evenodd" clip-rule="evenodd" d="M250 55H200C194.5 55 190 59.5 190 65C190 70.5 194.5 75 200 75H250C255.5 75 260 70.5 260 65C260 59.5 255.5 55 250 55Z" fill="#252525"/>
<path d="M0 60H200V70H0V60Z" fill="#252525"/>
<path fill-rule="evenodd" clip-rule="evenodd" d="M90 160V70H0V160H90Z" fill="#FCBB03"/>
<path fill-rule="evenodd" clip-rule="evenodd" d="M90 70H0V160L90 70Z" fill="#FD3E1D"/>
<path fill-rule="evenodd" clip-rule="evenodd" d="M340 65V115C340 120.5 344.5 125 350 125C355.5 125 360 120.5 360 115V65C360 59.5 355.5 55 350 55C344.5 55 340 59.5 340 65Z" fill="#252525"/>
<path d="M345 115H355V315H345V115Z" fill="#252525"/>
<path fill-rule="evenodd" clip-rule="evenodd" d="M255 225V315H345V225H255Z" fill="#FCBB03"/>
<path fill-rule="evenodd" clip-rule="evenodd" d="M255 315H345V225L255 315Z" fill="#FD3E1D"/>
</svg>
