<svg width="600" height="600" viewBox="0 0 600 600" fill="none" xmlns="http://www.w3.org/2000/svg">
<rect width="600" height="600" fill="white"/>
<path fill-rule="evenodd" clip-rule="evenodd" d="M205 167C205 180.8 193.8 192 180 192C166.2 192 155 180.8 155 167C155 153.2 166.2 142 180 142C193.8 142 205 153.2 205 167Z" fill="#252525"/>
<path fill-rule="evenodd" clip-rule="evenodd" d="M165 197H195C206 197 215 206.6 215 218.3V335.6C215 347.4 206 356.9 195 356.9H165C154 356.9 145 347.3 145 335.6V218.3C145 206.6 154 197 165 197Z" fill="#252525"/>
<path fill-rule="evenodd" clip-rule="evenodd" d="M230 197H280C285.5 197 290 201.5 290 207C290 212.5 285.5 217 280 217H230C224.5 217 220 212.5 220 207C220 201.5 224.5 197 230 197Z" fill="#252525"/>
<path d="M480 202H280V212H480V202Z" fill="#252525"/>
<path fill-rule="evenodd" clip-rule="evenodd" d="M390 302V212H480V302H390Z" fill="#FCBB03"/>
<path fill-rule="evenodd" clip-rule="evenodd" d="M390 212H480V302L390 212Z" fill="#FD3E1D"/>
<path fill-rule="evenodd" clip-rule="evenodd" d="M140 207V257C140 262.5 135.5 267 130 267C124.5 267 120 262.5 120 257V207C120 201.5 124.5 197 130 197C135.5 197 140 201.5 140 207Z" fill="#252525"/>
<path d="M135 257H125V457H135V257Z" fill="#252525"/>
<path fill-rule="evenodd" clip-rule="evenodd" d="M225 367V457H135V367H225Z" fill="#FCBB03"/>
<path fill-rule="evenodd" clip-rule="evenodd" d="M225 457H135V367L225 457Z" fill="#FD3E1D"/>
</svg>
