<svg width="600" height="315" viewBox="0 0 600 315" fill="none" xmlns="http://www.w3.org/2000/svg">
<g clip-path="url(#clip0)">
<path fill-rule="evenodd" clip-rule="evenodd" d="M325 25C325 38.8 313.8 50 300 50C286.2 50 275 38.8 275 25C275 11.2 286.2 0 300 0C313.8 0 325 11.2 325 25Z" fill="#252525"/>
<path fill-rule="evenodd" clip-rule="evenodd" d="M285 55H315C326 55 335 64.6 335 76.3V193.6C335 205.4 326 214.9 315 214.9H285C274 214.9 265 205.3 265 193.6V76.3C265 64.6 274 55 285 55Z" fill="#252525"/>
<path fill-rule="evenodd" clip-rule="evenodd" d="M350 55H400C405.5 55 410 59.5 410 65C410 70.5 405.5 75 400 75H350C344.5 75 340 70.5 340 65C340 59.5 344.5 55 350 55Z" fill="#252525"/>
<path d="M600 60H400V70H600V60Z" fill="#252525" stroke="#252525"/>
<path fill-rule="evenodd" clip-rule="evenodd" d="M510 160V70H600V160H510Z" fill="#FCBB03"/>
<path fill-rule="evenodd" clip-rule="evenodd" d="M510 70H600V160L510 70Z" fill="#FD3E1D"/>
<path fill-rule="evenodd" clip-rule="evenodd" d="M510 160V70H600V160H510Z" stroke="#252525" stroke-linejoin="round"/>
<path fill-rule="evenodd" clip-rule="evenodd" d="M260 65V115C260 120.5 255.5 125 250 125C244.5 125 240 120.5 240 115V65C240 59.5 244.5 55 250 55C255.5 55 260 59.5 260 65Z" fill="#252525"/>
<path d="M255 115H245V315H255V115Z" fill="#252525" stroke="#252525"/>
<path fill-rule="evenodd" clip-rule="evenodd" d="M345 225V315H255V225H345Z" fill="#FCBB03"/>
<path fill-rule="evenodd" clip-rule="evenodd" d="M345 315H255V225L345 315Z" fill="#FD3E1D"/>
<path fill-rule="evenodd" clip-rule="evenodd" d="M345 225V315H255V225H345Z" stroke="#252525" stroke-linejoin="round"/>
</g>
<defs>
<clipPath id="clip0">
<rect width="600" height="315" fill="white"/>
</clipPath>
</defs>
</svg>
