<svg width="600" height="315" viewBox="0 0 600 315" fill="none" xmlns="http://www.w3.org/2000/svg">
<path fill-rule="evenodd" clip-rule="evenodd" d="M275 25C275 38.8 286.2 50 300 50C313.8 50 325 38.8 325 25C325 11.2 313.8 0 300 0C286.2 0 275 11.2 275 25Z" fill="#252525"/>
<path fill-rule="evenodd" clip-rule="evenodd" d="M315 55H285C274 55 265 64.6 265 76.3V193.6C265 205.4 274 214.9 285 214.9H315C326 214.9 335 205.3 335 193.6V76.3C335 64.6 326 55 315 55Z" fill="#252525"/>
<path fill-rule="evenodd" clip-rule="evenodd" d="M242.9 57.9001L207.5 93.3001C203.6 97.2001 203.6 103.5 207.5 107.4C211.4 111.3 217.7 111.3 221.6 107.4L257 72.0001C260.9 68.1001 260.9 61.8001 257 57.9001C253.2 54.0001 246.8 54.0001 242.9 57.9001Z" fill="#252525"/>
<path d="M211.065 96.823L218.136 103.894L76.7157 245.314L69.6447 238.243L211.065 96.823Z" fill="#252525"/>
<path fill-rule="evenodd" clip-rule="evenodd" d="M204 245.3L140.4 181.7L76.8 245.3L140.4 309L204 245.3Z" fill="#FCBB03"/>
<path fill-rule="evenodd" clip-rule="evenodd" d="M140.399 181.7L76.7994 245.3L140.399 309V181.7Z" fill="#FD3E1D"/>
<path fill-rule="evenodd" clip-rule="evenodd" d="M340 65V115C340 120.5 344.5 125 350 125C355.5 125 360 120.5 360 115V65C360 59.5 355.5 55 350 55C344.5 55 340 59.5 340 65Z" fill="#252525"/>
<path d="M345 115H355V315H345V115Z" fill="#252525"/>
<path fill-rule="evenodd" clip-rule="evenodd" d="M255 225V315H345V225H255Z" fill="#FCBB03"/>
<path fill-rule="evenodd" clip-rule="evenodd" d="M255 315H345V225L255 315Z" fill="#FD3E1D"/>
</svg>
