<svg width="600" height="600" viewBox="0 0 600 600" fill="none" xmlns="http://www.w3.org/2000/svg">
<rect width="600" height="600" fill="white"/>
<path fill-rule="evenodd" clip-rule="evenodd" d="M240 167C240 180.8 228.8 192 215 192C201.2 192 190 180.8 190 167C190 153.2 201.2 142 215 142C228.8 142 240 153.2 240 167Z" fill="#252525"/>
<path fill-rule="evenodd" clip-rule="evenodd" d="M200 197H230C241 197 250 206.6 250 218.3V335.6C250 347.4 241 356.9 230 356.9H200C189 356.9 180 347.3 180 335.6V218.3C180 206.6 189 197 200 197Z" fill="#252525"/>
<path fill-rule="evenodd" clip-rule="evenodd" d="M272.1 199.9L307.5 235.3C311.4 239.2 311.4 245.5 307.5 249.4C303.6 253.3 297.3 253.3 293.4 249.4L258 214C254.1 210.1 254.1 203.8 258 199.9C261.8 196 268.2 196 272.1 199.9Z" fill="#252525"/>
<path d="M303.935 238.823L296.864 245.894L438.284 387.314L445.355 380.243L303.935 238.823Z" fill="#252525"/>
<path fill-rule="evenodd" clip-rule="evenodd" d="M311 387.3L374.6 323.7L438.2 387.3L374.6 451L311 387.3Z" fill="#FCBB03"/>
<path fill-rule="evenodd" clip-rule="evenodd" d="M374.601 323.7L438.201 387.3L374.601 451V323.7Z" fill="#FD3E1D"/>
<path fill-rule="evenodd" clip-rule="evenodd" d="M175 207V257C175 262.5 170.5 267 165 267C159.5 267 155 262.5 155 257V207C155 201.5 159.5 197 165 197C170.5 197 175 201.5 175 207Z" fill="#252525"/>
<path d="M170 257H160V457H170V257Z" fill="#252525"/>
<path fill-rule="evenodd" clip-rule="evenodd" d="M260 367V457H170V367H260Z" fill="#FCBB03"/>
<path fill-rule="evenodd" clip-rule="evenodd" d="M260 457H170V367L260 457Z" fill="#FD3E1D"/>
</svg>
