<svg width="600" height="315" viewBox="0 0 600 315" fill="none" xmlns="http://www.w3.org/2000/svg">
<path fill-rule="evenodd" clip-rule="evenodd" d="M275 25C275 38.8 286.2 50 300 50C313.8 50 325 38.8 325 25C325 11.2 313.8 0 300 0C286.2 0 275 11.2 275 25Z" fill="#252525"/>
<path fill-rule="evenodd" clip-rule="evenodd" d="M315 55H285C274 55 265 64.6 265 76.3V193.6C265 205.4 274 214.9 285 214.9H315C326 214.9 335 205.3 335 193.6V76.3C335 64.6 326 55 315 55Z" fill="#252525"/>
<path fill-rule="evenodd" clip-rule="evenodd" d="M274.9 72.0999L310.3 107.5C314.2 111.4 320.5 111.4 324.4 107.5C328.3 103.6 328.3 97.3 324.4 93.4L289 58C285.1 54.1 278.8 54.1 274.9 58C271 61.8 271 68.1999 274.9 72.0999Z" fill="#252525"/>
<path d="M320.894 96.8691L462.314 238.289L455.243 245.36L313.823 103.94L320.894 96.8691Z" fill="#252525"/>
<path fill-rule="evenodd" clip-rule="evenodd" d="M328 245.3L391.6 309L455.2 245.4L391.6 181.8L328 245.3Z" fill="#FCBB03"/>
<path fill-rule="evenodd" clip-rule="evenodd" d="M391.6 309L455.2 245.4L391.6 181.8V309Z" fill="#FD3E1D"/>
<path fill-rule="evenodd" clip-rule="evenodd" d="M350 75H400C405.5 75 410 70.5 410 65C410 59.5 405.5 55 400 55H350C344.5 55 340 59.5 340 65C340 70.5 344.5 75 350 75Z" fill="#252525"/>
<path d="M400 60H600V70H400V60Z" fill="#252525"/>
<path fill-rule="evenodd" clip-rule="evenodd" d="M510 160H600V70H510V160Z" fill="#FCBB03"/>
<path fill-rule="evenodd" clip-rule="evenodd" d="M600 160V70H510L600 160Z" fill="#FD3E1D"/>
</svg>
