<svg width="600" height="600" viewBox="0 0 600 600" fill="none" xmlns="http://www.w3.org/2000/svg">
<rect width="600" height="600" fill="white"/>
<path fill-rule="evenodd" clip-rule="evenodd" d="M455 228.3C455 242.1 443.8 253.3 430 253.3C416.2 253.3 405 242.1 405 228.3C405 214.5 416.2 203.3 430 203.3C443.8 203.3 455 214.5 455 228.3Z" fill="#252525"/>
<path fill-rule="evenodd" clip-rule="evenodd" d="M415 258.3H445C456 258.3 465 267.9 465 279.6V397C465 408.8 456 418.3 445 418.3H415C404 418.3 395 408.7 395 397V279.6C395 267.9 404 258.3 415 258.3Z" fill="#252525"/>
<path fill-rule="evenodd" clip-rule="evenodd" d="M455.101 275.4L419.701 310.8C415.801 314.7 409.501 314.7 405.601 310.8C401.701 306.9 401.701 300.6 405.601 296.7L441.001 261.3C444.901 257.4 451.201 257.4 455.101 261.3C459.001 265.1 459.001 271.5 455.101 275.4Z" fill="#252525"/>
<path d="M409.097 300.172L267.677 441.592L274.748 448.663L416.168 307.243L409.097 300.172Z" fill="#252525"/>
<path fill-rule="evenodd" clip-rule="evenodd" d="M402.001 448.6L338.401 512.2L274.801 448.6L338.401 385L402.001 448.6Z" fill="#FCBB03"/>
<path fill-rule="evenodd" clip-rule="evenodd" d="M338.401 512.3L274.801 448.7L338.401 385.1V512.3Z" fill="#FD3E1D"/>
<path fill-rule="evenodd" clip-rule="evenodd" d="M372.9 275.4L337.6 240C333.7 236.1 333.7 229.8 337.6 225.9C341.5 222 347.8 222 351.7 225.9L387.1 261.3C391 265.2 391 271.5 387.1 275.4C383.2 279.3 376.8 279.3 372.9 275.4Z" fill="#252525"/>
<path d="M206.701 87.9925L199.63 95.0635L341.05 236.484L348.121 229.413L206.701 87.9925Z" fill="#252525"/>
<path fill-rule="evenodd" clip-rule="evenodd" d="M199.7 222.4L136 158.7L199.7 95.1L263.3 158.7L199.7 222.4Z" fill="#FCBB03"/>
<path fill-rule="evenodd" clip-rule="evenodd" d="M136 158.7L199.7 95.1L263.3 158.7H136Z" fill="#FD3E1D"/>
</svg>
