<svg width="600" height="600" viewBox="0 0 600 600" fill="none" xmlns="http://www.w3.org/2000/svg">
<rect width="600" height="600" transform="matrix(-1 0 0 1 600 0)" fill="white"/>
<path fill-rule="evenodd" clip-rule="evenodd" d="M145 228.3C145 242.1 156.2 253.3 170 253.3C183.8 253.3 195 242.1 195 228.3C195 214.5 183.8 203.3 170 203.3C156.2 203.3 145 214.5 145 228.3Z" fill="#252525"/>
<path fill-rule="evenodd" clip-rule="evenodd" d="M185 258.3H155C144 258.3 135 267.9 135 279.6V397C135 408.8 144 418.3 155 418.3H185C196 418.3 205 408.7 205 397V279.6C205 267.9 196 258.3 185 258.3Z" fill="#252525"/>
<path fill-rule="evenodd" clip-rule="evenodd" d="M144.899 275.4L180.299 310.8C184.199 314.7 190.499 314.7 194.399 310.8C198.299 306.9 198.299 300.6 194.399 296.7L158.999 261.3C155.099 257.4 148.799 257.4 144.899 261.3C140.999 265.1 140.999 271.5 144.899 275.4Z" fill="#252525"/>
<path d="M190.903 300.172L332.323 441.592L325.252 448.663L183.832 307.243L190.903 300.172Z" fill="#252525"/>
<path fill-rule="evenodd" clip-rule="evenodd" d="M197.999 448.6L261.599 512.2L325.199 448.6L261.599 385L197.999 448.6Z" fill="#FCBB03"/>
<path fill-rule="evenodd" clip-rule="evenodd" d="M261.599 512.3L325.199 448.7L261.599 385.1V512.3Z" fill="#FD3E1D"/>
<path fill-rule="evenodd" clip-rule="evenodd" d="M227.1 275.4L262.4 240C266.3 236.1 266.3 229.8 262.4 225.9C258.5 222 252.2 222 248.3 225.9L212.9 261.3C209 265.2 209 271.5 212.9 275.4C216.8 279.3 223.2 279.3 227.1 275.4Z" fill="#252525"/>
<path d="M393.299 87.9925L400.37 95.0635L258.95 236.484L251.879 229.413L393.299 87.9925Z" fill="#252525"/>
<path fill-rule="evenodd" clip-rule="evenodd" d="M400.3 222.4L464 158.7L400.3 95.1L336.7 158.7L400.3 222.4Z" fill="#FCBB03"/>
<path fill-rule="evenodd" clip-rule="evenodd" d="M464 158.7L400.3 95.1L336.7 158.7H464Z" fill="#FD3E1D"/>
</svg>
