<svg width="600" height="600" viewBox="0 0 600 600" fill="none" xmlns="http://www.w3.org/2000/svg">
<rect width="600" height="600" fill="white"/>
<path fill-rule="evenodd" clip-rule="evenodd" d="M368 263C368 276.8 356.8 288 343 288C329.2 288 318 276.8 318 263C318 249.2 329.2 238 343 238C356.8 238 368 249.2 368 263Z" fill="#252525"/>
<path fill-rule="evenodd" clip-rule="evenodd" d="M328 293H358C369 293 378 302.6 378 314.3V431.6C378 443.4 369 452.9 358 452.9H328C317 452.9 308 443.3 308 431.6V314.3C308 302.6 317 293 328 293Z" fill="#252525"/>
<path fill-rule="evenodd" clip-rule="evenodd" d="M383 303V253C383 247.5 387.5 243 393 243C398.5 243 403 247.5 403 253V303C403 308.5 398.5 313 393 313C387.5 313 383 308.5 383 303Z" fill="#252525"/>
<path d="M398 53H388V253H398V53Z" fill="#252525"/>
<path fill-rule="evenodd" clip-rule="evenodd" d="M488 143H398V53H488V143Z" fill="#FCBB03"/>
<path fill-rule="evenodd" clip-rule="evenodd" d="M398 143V53H488L398 143Z" fill="#FD3E1D"/>
<path fill-rule="evenodd" clip-rule="evenodd" d="M300.1 310.1L264.7 345.5C260.8 349.4 254.5 349.4 250.6 345.5C246.7 341.6 246.7 335.3 250.6 331.4L286 296C289.9 292.1 296.2 292.1 300.1 296C304 299.8 304 306.2 300.1 310.1Z" fill="#252525"/>
<path d="M254.105 334.867L112.685 476.287L119.756 483.358L261.176 341.938L254.105 334.867Z" fill="#252525"/>
<path fill-rule="evenodd" clip-rule="evenodd" d="M247 483.3L183.4 547L119.8 483.4L183.4 419.8L247 483.3Z" fill="#FCBB03"/>
<path fill-rule="evenodd" clip-rule="evenodd" d="M183.4 547L119.8 483.4L183.4 419.8V547Z" fill="#FD3E1D"/>
</svg>
