<svg width="600" height="600" viewBox="0 0 600 600" fill="none" xmlns="http://www.w3.org/2000/svg">
<rect width="600" height="600" fill="white"/>
<path fill-rule="evenodd" clip-rule="evenodd" d="M294 228.3C294 242.1 282.8 253.3 269 253.3C255.2 253.3 244 242.1 244 228.3C244 214.5 255.2 203.3 269 203.3C282.8 203.3 294 214.5 294 228.3Z" fill="#252525"/>
<path fill-rule="evenodd" clip-rule="evenodd" d="M254 258.3H284C295 258.3 304 267.9 304 279.6V397C304 408.8 295 418.3 284 418.3H254C243 418.3 234 408.7 234 397V279.6C234 267.9 243 258.3 254 258.3Z" fill="#252525"/>
<path fill-rule="evenodd" clip-rule="evenodd" d="M311.9 261.2L347.3 225.8C351.2 221.9 357.5 221.9 361.4 225.8C365.3 229.7 365.3 236 361.4 239.9L326 275.3C322.1 279.2 315.8 279.2 311.9 275.3C308 271.5 308 265.1 311.9 261.2Z" fill="#252525"/>
<path d="M492.228 87.9467L350.808 229.367L357.879 236.438L499.299 95.0177L492.228 87.9467Z" fill="#252525"/>
<path fill-rule="evenodd" clip-rule="evenodd" d="M499.299 222.4L435.699 158.8L499.299 95.2L562.999 158.7L499.299 222.4Z" fill="#FCBB03"/>
<path fill-rule="evenodd" clip-rule="evenodd" d="M435.699 158.7L499.299 95.1L562.999 158.7H435.699Z" fill="#FD3E1D"/>
<path fill-rule="evenodd" clip-rule="evenodd" d="M226.1 275.4L190.7 310.8C186.8 314.7 180.5 314.7 176.6 310.8C172.7 306.9 172.7 300.6 176.6 296.7L212 261.3C215.9 257.4 222.2 257.4 226.1 261.3C230 265.1 230 271.5 226.1 275.4Z" fill="#252525"/>
<path d="M180.097 300.171L38.6768 441.591L45.7478 448.662L187.168 307.242L180.097 300.171Z" fill="#252525"/>
<path fill-rule="evenodd" clip-rule="evenodd" d="M173 448.6L109.4 512.2L45.7998 448.6L109.4 385L173 448.6Z" fill="#FCBB03"/>
<path fill-rule="evenodd" clip-rule="evenodd" d="M109.4 512.3L45.7998 448.7L109.4 385.1V512.3Z" fill="#FD3E1D"/>
</svg>
