<svg width="600" height="316" viewBox="0 0 600 316" fill="none" xmlns="http://www.w3.org/2000/svg">
<g clip-path="url(#clip0)">
<path fill-rule="evenodd" clip-rule="evenodd" d="M275 25.6001C275 39.4001 286.2 50.6001 300 50.6001C313.8 50.6001 325 39.4001 325 25.6001C325 11.8001 313.8 0.600098 300 0.600098C286.2 0.600098 275 11.8001 275 25.6001Z" fill="#252525"/>
<path fill-rule="evenodd" clip-rule="evenodd" d="M315 55.6001H285C274 55.6001 265 65.2001 265 76.9001V194.2C265 206 274 215.5 285 215.5H315C326 215.5 335 205.9 335 194.2V76.9001C335 65.2001 326 55.6001 315 55.6001Z" fill="#252525"/>
<path fill-rule="evenodd" clip-rule="evenodd" d="M242.9 58.5002L207.5 93.9002C203.6 97.8002 203.6 104.1 207.5 108C211.4 111.9 217.7 111.9 221.6 108L257 72.6002C260.9 68.7002 260.9 62.4002 257 58.5002C253.2 54.6002 246.8 54.6002 242.9 58.5002Z" fill="#252525"/>
<path d="M211.065 97.4231L218.136 104.494L76.7157 245.914L69.6447 238.843L211.065 97.4231Z" fill="#252525"/>
<path fill-rule="evenodd" clip-rule="evenodd" d="M204 245.9L140.4 182.3L76.8 245.9L140.4 309.6L204 245.9Z" fill="#FCBB03"/>
<path fill-rule="evenodd" clip-rule="evenodd" d="M140.399 182.3L76.7994 245.9L140.399 309.6V182.3Z" fill="#FD3E1D"/>
<path fill-rule="evenodd" clip-rule="evenodd" d="M342.899 72.7003L378.299 108.1C382.199 112 388.499 112 392.399 108.1C396.299 104.2 396.299 97.9003 392.399 94.0003L356.999 58.6003C353.099 54.7003 346.799 54.7003 342.899 58.6003C338.999 62.4003 338.999 68.8003 342.899 72.7003Z" fill="#252525"/>
<path d="M388.893 97.4687L530.313 238.889L523.242 245.96L381.822 104.54L388.893 97.4687Z" fill="#252525"/>
<path fill-rule="evenodd" clip-rule="evenodd" d="M395.999 245.9L459.599 309.6L523.199 246L459.599 182.4L395.999 245.9Z" fill="#FCBB03"/>
<path fill-rule="evenodd" clip-rule="evenodd" d="M459.599 309.6L523.199 246L459.599 182.4V309.6Z" fill="#FD3E1D"/>
</g>
<defs>
<clipPath id="clip0">
<rect width="600" height="315" transform="matrix(-1 0 0 1 600 0.600098)" fill="white"/>
</clipPath>
</defs>
</svg>
