<svg width="600" height="600" viewBox="0 0 600 600" fill="none" xmlns="http://www.w3.org/2000/svg">
<rect width="600" height="600" fill="white"/>
<path fill-rule="evenodd" clip-rule="evenodd" d="M325 170.6C325 184.4 313.8 195.6 300 195.6C286.2 195.6 275 184.4 275 170.6C275 156.8 286.2 145.6 300 145.6C313.8 145.6 325 156.8 325 170.6Z" fill="#252525"/>
<path fill-rule="evenodd" clip-rule="evenodd" d="M285 200.6H315C326 200.6 335 210.2 335 221.9V339.2C335 351 326 360.5 315 360.5H285C274 360.5 265 350.9 265 339.2V221.9C265 210.2 274 200.6 285 200.6Z" fill="#252525"/>
<path fill-rule="evenodd" clip-rule="evenodd" d="M357.099 203.5L392.499 238.9C396.399 242.8 396.399 249.1 392.499 253C388.599 256.9 382.299 256.9 378.399 253L342.999 217.6C339.099 213.7 339.099 207.4 342.999 203.5C346.799 199.6 353.199 199.6 357.099 203.5Z" fill="#252525"/>
<path d="M388.934 242.423L381.863 249.494L523.283 390.914L530.354 383.843L388.934 242.423Z" fill="#252525"/>
<path fill-rule="evenodd" clip-rule="evenodd" d="M396 390.9L459.6 327.3L523.2 390.9L459.6 454.6L396 390.9Z" fill="#FCBB03"/>
<path fill-rule="evenodd" clip-rule="evenodd" d="M459.6 327.3L523.2 390.9L459.6 454.6V327.3Z" fill="#FD3E1D"/>
<path fill-rule="evenodd" clip-rule="evenodd" d="M257.099 217.7L221.699 253.1C217.799 257 211.499 257 207.599 253.1C203.699 249.2 203.699 242.9 207.599 239L242.999 203.6C246.899 199.7 253.199 199.7 257.099 203.6C260.999 207.4 260.999 213.8 257.099 217.7Z" fill="#252525"/>
<path d="M211.106 242.469L69.6855 383.889L76.7565 390.96L218.177 249.54L211.106 242.469Z" fill="#252525"/>
<path fill-rule="evenodd" clip-rule="evenodd" d="M203.999 390.9L140.399 454.6L76.7988 391L140.399 327.4L203.999 390.9Z" fill="#FCBB03"/>
<path fill-rule="evenodd" clip-rule="evenodd" d="M140.399 454.6L76.7988 391L140.399 327.4V454.6Z" fill="#FD3E1D"/>
</svg>
