<svg width="600" height="316" viewBox="0 0 600 316" fill="none" xmlns="http://www.w3.org/2000/svg">
<g clip-path="url(#clip0)">
<path fill-rule="evenodd" clip-rule="evenodd" d="M325 25.6001C325 39.4001 313.8 50.6001 300 50.6001C286.2 50.6001 275 39.4001 275 25.6001C275 11.8001 286.2 0.600098 300 0.600098C313.8 0.600098 325 11.8001 325 25.6001Z" fill="#252525"/>
<path fill-rule="evenodd" clip-rule="evenodd" d="M285 55.6001H315C326 55.6001 335 65.2001 335 76.9001V194.2C335 206 326 215.5 315 215.5H285C274 215.5 265 205.9 265 194.2V76.9001C265 65.2001 274 55.6001 285 55.6001Z" fill="#252525"/>
<path fill-rule="evenodd" clip-rule="evenodd" d="M357.1 58.5002L392.5 93.9002C396.4 97.8002 396.4 104.1 392.5 108C388.6 111.9 382.3 111.9 378.4 108L343 72.6002C339.1 68.7002 339.1 62.4002 343 58.5002C346.8 54.6002 353.2 54.6002 357.1 58.5002Z" fill="#252525"/>
<path d="M388.935 97.4231L381.864 104.494L523.284 245.914L530.355 238.843L388.935 97.4231Z" fill="#252525" stroke="#252525"/>
<path fill-rule="evenodd" clip-rule="evenodd" d="M396 245.9L459.6 182.3L523.2 245.9L459.6 309.6L396 245.9Z" fill="#FCBB03"/>
<path fill-rule="evenodd" clip-rule="evenodd" d="M459.6 182.3L523.2 245.9L459.6 309.6V182.3Z" fill="#FD3E1D"/>
<path fill-rule="evenodd" clip-rule="evenodd" d="M396 245.9L459.6 182.3L523.2 245.9L459.6 309.6L396 245.9Z" stroke="#252525" stroke-linejoin="round"/>
<path fill-rule="evenodd" clip-rule="evenodd" d="M257.1 72.7L221.7 108.1C217.8 112 211.5 112 207.6 108.1C203.7 104.2 203.7 97.9 207.6 94L243 58.6C246.9 54.7 253.2 54.7 257.1 58.6C261 62.4 261 68.8 257.1 72.7Z" fill="#252525"/>
<path d="M211.106 97.4687L69.686 238.889L76.757 245.96L218.177 104.54L211.106 97.4687Z" fill="#252525" stroke="#252525"/>
<path fill-rule="evenodd" clip-rule="evenodd" d="M204 245.9L140.4 309.6L76.7998 246L140.4 182.4L204 245.9Z" fill="#FCBB03"/>
<path fill-rule="evenodd" clip-rule="evenodd" d="M140.4 309.6L76.7998 246L140.4 182.4V309.6Z" fill="#FD3E1D"/>
<path fill-rule="evenodd" clip-rule="evenodd" d="M204 245.9L140.4 309.6L76.7998 246L140.4 182.4L204 245.9Z" stroke="#252525" stroke-linejoin="round"/>
</g>
<defs>
<clipPath id="clip0">
<rect y="0.600098" width="600" height="315" fill="white"/>
</clipPath>
</defs>
</svg>
