<svg width="600" height="600" viewBox="0 0 600 600" fill="none" xmlns="http://www.w3.org/2000/svg">
<rect width="600" height="600" transform="matrix(-1 0 0 1 600 0)" fill="white"/>
<path fill-rule="evenodd" clip-rule="evenodd" d="M275 170.6C275 184.4 286.2 195.6 300 195.6C313.8 195.6 325 184.4 325 170.6C325 156.8 313.8 145.6 300 145.6C286.2 145.6 275 156.8 275 170.6Z" fill="#252525"/>
<path fill-rule="evenodd" clip-rule="evenodd" d="M315 200.6H285C274 200.6 265 210.2 265 221.9V339.2C265 351 274 360.5 285 360.5H315C326 360.5 335 350.9 335 339.2V221.9C335 210.2 326 200.6 315 200.6Z" fill="#252525"/>
<path fill-rule="evenodd" clip-rule="evenodd" d="M242.9 203.5L207.5 238.9C203.6 242.8 203.6 249.1 207.5 253C211.4 256.9 217.7 256.9 221.6 253L257 217.6C260.9 213.7 260.9 207.4 257 203.5C253.2 199.6 246.8 199.6 242.9 203.5Z" fill="#252525"/>
<path d="M211.065 242.423L218.136 249.494L76.7157 390.914L69.6447 383.843L211.065 242.423Z" fill="#252525"/>
<path fill-rule="evenodd" clip-rule="evenodd" d="M204 390.9L140.4 327.3L76.8 390.9L140.4 454.6L204 390.9Z" fill="#FCBB03"/>
<path fill-rule="evenodd" clip-rule="evenodd" d="M140.399 327.3L76.7994 390.9L140.399 454.6V327.3Z" fill="#FD3E1D"/>
<path fill-rule="evenodd" clip-rule="evenodd" d="M342.899 217.7L378.299 253.1C382.199 257 388.499 257 392.399 253.1C396.299 249.2 396.299 242.9 392.399 239L356.999 203.6C353.099 199.7 346.799 199.7 342.899 203.6C338.999 207.4 338.999 213.8 342.899 217.7Z" fill="#252525"/>
<path d="M388.893 242.469L530.313 383.889L523.242 390.96L381.822 249.54L388.893 242.469Z" fill="#252525"/>
<path fill-rule="evenodd" clip-rule="evenodd" d="M395.999 390.9L459.599 454.6L523.199 391L459.599 327.4L395.999 390.9Z" fill="#FCBB03"/>
<path fill-rule="evenodd" clip-rule="evenodd" d="M459.599 454.6L523.199 391L459.599 327.4V454.6Z" fill="#FD3E1D"/>
</svg>
