<svg width="600" height="600" viewBox="0 0 600 600" fill="none" xmlns="http://www.w3.org/2000/svg">
<rect width="600" height="600" fill="white"/>
<path fill-rule="evenodd" clip-rule="evenodd" d="M458 275.3C458 289.1 446.8 300.3 433 300.3C419.2 300.3 408 289.1 408 275.3C408 261.5 419.2 250.3 433 250.3C446.8 250.3 458 261.5 458 275.3Z" fill="#252525"/>
<path fill-rule="evenodd" clip-rule="evenodd" d="M418 305.3H448C459 305.3 468 314.9 468 326.6V444C468 455.8 459 465.3 448 465.3H418C407 465.3 398 455.7 398 444V326.6C398 314.9 407 305.3 418 305.3Z" fill="#252525"/>
<path fill-rule="evenodd" clip-rule="evenodd" d="M443.901 322.4L408.601 287C404.701 283.1 404.701 276.8 408.601 272.9C412.501 269 418.801 269 422.701 272.9L458.101 308.3C462.001 312.2 462.001 318.5 458.101 322.4C454.201 326.3 447.801 326.3 443.901 322.4Z" fill="#252525"/>
<path d="M277.7 134.993L270.629 142.064L412.049 283.484L419.12 276.413L277.7 134.993Z" fill="#252525"/>
<path fill-rule="evenodd" clip-rule="evenodd" d="M270.7 269.4L207 205.7L270.6 142.1L334.2 205.7L270.7 269.4Z" fill="#FCBB03"/>
<path fill-rule="evenodd" clip-rule="evenodd" d="M207 205.7L270.6 142.1L334.2 205.7H207Z" fill="#FD3E1D"/>
<path fill-rule="evenodd" clip-rule="evenodd" d="M383 325.3H333C327.5 325.3 323 320.8 323 315.3C323 309.8 327.5 305.3 333 305.3H383C388.5 305.3 393 309.8 393 315.3C393 320.8 388.5 325.3 383 325.3Z" fill="#252525"/>
<path d="M333 310.3H133V320.3H333V310.3Z" fill="#252525"/>
<path fill-rule="evenodd" clip-rule="evenodd" d="M223 410.3H133V320.3H223V410.3Z" fill="#FCBB03"/>
<path fill-rule="evenodd" clip-rule="evenodd" d="M133 410.3V320.3H223L133 410.3Z" fill="#FD3E1D"/>
</svg>
