<svg width="600" height="500" viewBox="0 0 600 500" fill="none" xmlns="http://www.w3.org/2000/svg">
<g clip-path="url(#clip0)">
<path d="M300 235C286.193 235 275 223.807 275 210C275 196.193 286.193 185 300 185C313.807 185 325 196.193 325 210C325 223.807 313.807 235 300 235Z" fill="#252525"/>
<path d="M315 240H285C274 240 265 249 265 260V380C265 391 274 400 285 400H315C326 400 335 391 335 380V260C335 249 326 240 315 240Z" fill="#252525"/>
<path d="M260 250V200C260 194.5 255.5 190 250 190C244.5 190 240 194.5 240 200V250C240 255.5 244.5 260 250 260C255.5 260 260 255.5 260 250Z" fill="#252525"/>
<path d="M255.5 201V0.5H154.5V91.5H244.5V201.5L255.5 201Z" fill="#252525"/>
<path d="M244.5 90.5V1.5H155.5V90.5H244.5Z" fill="#FCBB03"/>
<path d="M244.5 90.5L155.5 1.5H244.5V90.5Z" fill="#FD3E1D"/>
<path d="M400 240H350C344.5 240 340 244.5 340 250C340 255.5 344.5 260 350 260H400C405.5 260 410 255.5 410 250C410 244.5 405.5 240 400 240Z" fill="#252525"/>
<path d="M600 244.5H399.5V255.5H509.5V345.5H600.5L600 244.5Z" fill="#252525"/>
<path d="M599.5 255.5H510.5V344.5H599.5V255.5Z" fill="#FCBB03"/>
<path d="M599.5 255.5H510.5L599.5 344.5V255.5Z" fill="#FD3E1D"/>
</g>
<defs>
<clipPath id="clip0">
<rect width="600" height="500" transform="matrix(-1 0 0 1 600 0)" fill="white"/>
</clipPath>
</defs>
</svg>
