<svg width="600" height="500" viewBox="0 0 600 500" fill="none" xmlns="http://www.w3.org/2000/svg">
<g clip-path="url(#clip0)">
<path d="M300 235C313.807 235 325 223.807 325 210C325 196.193 313.807 185 300 185C286.193 185 275 196.193 275 210C275 223.807 286.193 235 300 235Z" fill="#252525"/>
<path d="M285 240H315C326 240 335 249 335 260V380C335 391 326 400 315 400H285C274 400 265 391 265 380V260C265 249 274 240 285 240Z" fill="#252525"/>
<path d="M340 250V200C340 194.5 344.5 190 350 190C355.5 190 360 194.5 360 200V250C360 255.5 355.5 260 350 260C344.5 260 340 255.5 340 250Z" fill="#252525"/>
<path d="M344.5 201V0.5H445.5V91.5H355.5V201.5L344.5 201Z" fill="#252525"/>
<path d="M355.5 90.5V1.5H444.5V90.5H355.5Z" fill="#FCBB03"/>
<path d="M355.5 90.5L444.5 1.5H355.5V90.5Z" fill="#FD3E1D"/>
<path d="M200 240H250C255.5 240 260 244.5 260 250C260 255.5 255.5 260 250 260H200C194.5 260 190 255.5 190 250C190 244.5 194.5 240 200 240Z" fill="#252525"/>
<path d="M0 244.5H200.5V255.5H90.5V345.5H-0.5L0 244.5Z" fill="#252525"/>
<path d="M0.5 255.5H89.5V344.5H0.5V255.5Z" fill="#FCBB03"/>
<path d="M0.5 255.5H89.5L0.5 344.5V255.5Z" fill="#FD3E1D"/>
</g>
<defs>
<clipPath id="clip0">
<rect width="600" height="500" fill="white"/>
</clipPath>
</defs>
</svg>
