<svg width="600" height="600" viewBox="0 0 600 600" fill="none" xmlns="http://www.w3.org/2000/svg">
<rect width="600" height="600" fill="white"/>
<path d="M378 335C391.807 335 403 323.807 403 310C403 296.193 391.807 285 378 285C364.193 285 353 296.193 353 310C353 323.807 364.193 335 378 335Z" fill="#252525"/>
<path d="M363 340H393C404 340 413 349 413 360V480C413 491 404 500 393 500H363C352 500 343 491 343 480V360C343 349 352 340 363 340Z" fill="#252525"/>
<path d="M418 350V300C418 294.5 422.5 290 428 290C433.5 290 438 294.5 438 300V350C438 355.5 433.5 360 428 360C422.5 360 418 355.5 418 350Z" fill="#252525"/>
<path d="M422.5 301V100.5H523.5V191.5H433.5V301.5L422.5 301Z" fill="#252525"/>
<path d="M433.5 190.5V101.5H522.5V190.5H433.5Z" fill="#FCBB03"/>
<path d="M433.5 190.5L522.5 101.5H433.5V190.5Z" fill="#FD3E1D"/>
<path d="M278 340H328C333.5 340 338 344.5 338 350C338 355.5 333.5 360 328 360H278C272.5 360 268 355.5 268 350C268 344.5 272.5 340 278 340Z" fill="#252525"/>
<path d="M78 344.5H278.5V355.5H168.5V445.5H77.5L78 344.5Z" fill="#252525"/>
<path d="M78.5 355.5H167.5V444.5H78.5V355.5Z" fill="#FCBB03"/>
<path d="M78.5 355.5H167.5L78.5 444.5V355.5Z" fill="#FD3E1D"/>
</svg>
