<svg width="600" height="600" viewBox="0 0 600 600" fill="none" xmlns="http://www.w3.org/2000/svg">
<rect width="600" height="600" transform="matrix(-1 0 0 1 600 0)" fill="white"/>
<path d="M222 335C208.193 335 197 323.807 197 310C197 296.193 208.193 285 222 285C235.807 285 247 296.193 247 310C247 323.807 235.807 335 222 335Z" fill="#252525"/>
<path d="M237 340H207C196 340 187 349 187 360V480C187 491 196 500 207 500H237C248 500 257 491 257 480V360C257 349 248 340 237 340Z" fill="#252525"/>
<path d="M182 350V300C182 294.5 177.5 290 172 290C166.5 290 162 294.5 162 300V350C162 355.5 166.5 360 172 360C177.5 360 182 355.5 182 350Z" fill="#252525"/>
<path d="M177.5 301V100.5H76.5L76.5 191.5H166.5V301.5L177.5 301Z" fill="#252525"/>
<path d="M166.5 190.5V101.5H77.5V190.5H166.5Z" fill="#FCBB03"/>
<path d="M166.5 190.5L77.5 101.5H166.5V190.5Z" fill="#FD3E1D"/>
<path d="M322 340H272C266.5 340 262 344.5 262 350C262 355.5 266.5 360 272 360H322C327.5 360 332 355.5 332 350C332 344.5 327.5 340 322 340Z" fill="#252525"/>
<path d="M522 344.5H321.5V355.5H431.5V445.5H522.5L522 344.5Z" fill="#252525"/>
<path d="M521.5 355.5H432.5V444.5H521.5V355.5Z" fill="#FCBB03"/>
<path d="M521.5 355.5H432.5L521.5 444.5V355.5Z" fill="#FD3E1D"/>
</svg>
