<svg width="600" height="600" viewBox="0 0 600 600" fill="none" xmlns="http://www.w3.org/2000/svg">
<rect width="600" height="600" transform="matrix(-1 0 0 1 600 0)" fill="white"/>
<g clip-path="url(#clip0)">
<path d="M296 301.586C282.193 301.586 271 290.393 271 276.586C271 262.779 282.193 251.586 296 251.586C309.807 251.586 321 262.779 321 276.586C321 290.393 309.807 301.586 296 301.586Z" fill="#252525"/>
<path d="M311 306.586H281C270 306.586 261 315.586 261 326.586V446.586C261 457.586 270 466.586 281 466.586H311C322 466.586 331 457.586 331 446.586V326.586C331 315.586 322 306.586 311 306.586Z" fill="#252525"/>
<path d="M254.202 309.494L218.776 274.068C214.887 270.179 208.523 270.179 204.634 274.068C200.745 277.957 200.745 284.321 204.634 288.21L240.06 323.636C243.949 327.525 250.313 327.525 254.202 323.636C258.091 319.747 258.091 313.383 254.202 309.494Z" fill="#252525"/>
<path d="M216.301 278.098L74.5971 136.253L3.10865 207.6L67.3846 271.876L131.095 208.307L208.947 286.159L216.301 278.098Z" fill="#252525"/>
<path d="M130.458 207.67L67.526 144.738L4.59349 207.67L67.526 270.603L130.458 207.67Z" fill="#FCBB03"/>
<path d="M130.458 207.67H4.59349L67.5967 144.809L130.458 207.67Z" fill="#FD3E1D"/>
<path d="M396 306.586H346C340.5 306.586 336 311.086 336 316.586C336 322.086 340.5 326.586 346 326.586H396C401.5 326.586 406 322.086 406 316.586C406 311.086 401.5 306.586 396 306.586Z" fill="#252525"/>
<path d="M596 311.086H395.5V322.086H505.5V412.086H596.5L596 311.086Z" fill="#252525"/>
<path d="M595.5 322.086H506.5V411.086H595.5V322.086Z" fill="#FCBB03"/>
<path d="M595.5 322.086H506.5L595.5 411.086V322.086Z" fill="#FD3E1D"/>
</g>
<defs>
<clipPath id="clip0">
<rect width="594" height="334.286" transform="matrix(-1 0 0 1 597 133)" fill="white"/>
</clipPath>
</defs>
</svg>
