<svg width="600" height="600" viewBox="0 0 600 600" fill="none" xmlns="http://www.w3.org/2000/svg">
<rect width="600" height="600" fill="white"/>
<g clip-path="url(#clip0)">
<path d="M304 301.586C317.807 301.586 329 290.393 329 276.586C329 262.779 317.807 251.586 304 251.586C290.193 251.586 279 262.779 279 276.586C279 290.393 290.193 301.586 304 301.586Z" fill="#252525"/>
<path d="M289 306.586H319C330 306.586 339 315.586 339 326.586V446.586C339 457.586 330 466.586 319 466.586H289C278 466.586 269 457.586 269 446.586V326.586C269 315.586 278 306.586 289 306.586Z" fill="#252525"/>
<path d="M345.798 309.494L381.224 274.068C385.113 270.179 391.477 270.179 395.366 274.068C399.255 277.957 399.255 284.321 395.366 288.21L359.94 323.636C356.051 327.525 349.687 327.525 345.798 323.636C341.909 319.747 341.909 313.383 345.798 309.494Z" fill="#252525"/>
<path d="M383.698 278.098L525.402 136.253L596.89 207.6L532.614 271.876L468.904 208.307L391.052 286.159L383.698 278.098Z" fill="#252525"/>
<path d="M469.541 207.67L532.474 144.738L595.406 207.67L532.474 270.603L469.541 207.67Z" fill="#FCBB03"/>
<path d="M469.541 207.67H595.406L532.403 144.809L469.541 207.67Z" fill="#FD3E1D"/>
<path d="M204 306.586H254C259.5 306.586 264 311.086 264 316.586C264 322.086 259.5 326.586 254 326.586H204C198.5 326.586 194 322.086 194 316.586C194 311.086 198.5 306.586 204 306.586Z" fill="#252525"/>
<path d="M4 311.086H204.5V322.086H94.5V412.086H3.5L4 311.086Z" fill="#252525"/>
<path d="M4.5 322.086H93.5V411.086H4.5V322.086Z" fill="#FCBB03"/>
<path d="M4.5 322.086H93.5L4.5 411.086V322.086Z" fill="#FD3E1D"/>
</g>
<defs>
<clipPath id="clip0">
<rect x="3" y="133" width="594" height="334.286" fill="white"/>
</clipPath>
</defs>
</svg>
