<svg width="600" height="431" viewBox="0 0 600 431" fill="none" xmlns="http://www.w3.org/2000/svg">
<g clip-path="url(#clip0)">
<path d="M300 165.3C286.193 165.3 275 154.107 275 140.3C275 126.493 286.193 115.3 300 115.3C313.807 115.3 325 126.493 325 140.3C325 154.107 313.807 165.3 300 165.3Z" fill="#252525"/>
<path d="M315 170.3H285C274 170.3 265 179.3 265 190.3V310.3C265 321.3 274 330.3 285 330.3H315C326 330.3 335 321.3 335 310.3V190.3C335 179.3 326 170.3 315 170.3Z" fill="#252525"/>
<path d="M258.202 173.208L222.776 137.782C218.887 133.893 212.523 133.893 208.634 137.782C204.745 141.671 204.745 148.035 208.634 151.924L244.06 187.35C247.949 191.239 254.313 191.239 258.202 187.35C262.091 183.461 262.091 177.097 258.202 173.208Z" fill="#252525"/>
<path d="M220.301 141.813L78.5971 -0.0327575L7.10865 71.3143L71.3846 135.59L135.095 72.0214L212.947 149.874L220.301 141.813Z" fill="#252525"/>
<path d="M134.459 71.3848L71.5265 8.45226L8.59398 71.3848L71.5265 134.317L134.459 71.3848Z" fill="#FCBB03"/>
<path d="M134.459 71.3848H8.59398L71.5972 8.52296L134.459 71.3848Z" fill="#FD3E1D"/>
<path d="M400 170.3H350C344.5 170.3 340 174.8 340 180.3C340 185.8 344.5 190.3 350 190.3H400C405.5 190.3 410 185.8 410 180.3C410 174.8 405.5 170.3 400 170.3Z" fill="#252525"/>
<path d="M600 174.8H399.5V185.8H509.5V275.8H600.5L600 174.8Z" fill="#252525"/>
<path d="M599.5 185.8H510.5V274.8H599.5V185.8Z" fill="#FCBB03"/>
<path d="M599.5 185.8H510.5L599.5 274.8V185.8Z" fill="#FD3E1D"/>
</g>
<defs>
<clipPath id="clip0">
<rect width="600" height="430.3" transform="matrix(-1 0 0 1 600 0)" fill="white"/>
</clipPath>
</defs>
</svg>
