<svg width="600" height="431" viewBox="0 0 600 431" fill="none" xmlns="http://www.w3.org/2000/svg">
<g clip-path="url(#clip0)">
<path d="M300 165.3C313.807 165.3 325 154.107 325 140.3C325 126.493 313.807 115.3 300 115.3C286.193 115.3 275 126.493 275 140.3C275 154.107 286.193 165.3 300 165.3Z" fill="#252525"/>
<path d="M285 170.3H315C326 170.3 335 179.3 335 190.3V310.3C335 321.3 326 330.3 315 330.3H285C274 330.3 265 321.3 265 310.3V190.3C265 179.3 274 170.3 285 170.3Z" fill="#252525"/>
<path d="M341.798 173.208L377.224 137.782C381.113 133.893 387.477 133.893 391.366 137.782C395.255 141.671 395.255 148.035 391.366 151.924L355.94 187.35C352.051 191.239 345.687 191.239 341.798 187.35C337.909 183.461 337.909 177.097 341.798 173.208Z" fill="#252525"/>
<path d="M379.699 141.813L521.403 -0.0330016L592.891 71.3141L528.615 135.59L464.905 72.0212L387.053 149.874L379.699 141.813Z" fill="#252525"/>
<path d="M465.542 71.3848L528.474 8.45226L591.407 71.3848L528.474 134.317L465.542 71.3848Z" fill="#FCBB03"/>
<path d="M465.542 71.3848H591.407L528.403 8.52296L465.542 71.3848Z" fill="#FD3E1D"/>
<path d="M200 170.3H250C255.5 170.3 260 174.8 260 180.3C260 185.8 255.5 190.3 250 190.3H200C194.5 190.3 190 185.8 190 180.3C190 174.8 194.5 170.3 200 170.3Z" fill="#252525"/>
<path d="M0 174.8H200.5V185.8H90.5V275.8H-0.5L0 174.8Z" fill="#252525"/>
<path d="M0.5 185.8H89.5V274.8H0.5V185.8Z" fill="#FCBB03"/>
<path d="M0.5 185.8H89.5L0.5 274.8V185.8Z" fill="#FD3E1D"/>
</g>
<defs>
<clipPath id="clip0">
<rect width="600" height="430.3" fill="white"/>
</clipPath>
</defs>
</svg>
