<svg width="600" height="316" viewBox="0 0 600 316" fill="none" xmlns="http://www.w3.org/2000/svg">
<g clip-path="url(#clip0)">
<path d="M300 50.2998C286.193 50.2998 275 39.1069 275 25.2998C275 11.4927 286.193 0.299805 300 0.299805C313.807 0.299805 325 11.4927 325 25.2998C325 39.1069 313.807 50.2998 300 50.2998Z" fill="#252525"/>
<path d="M315 55.2998H285C274 55.2998 265 64.2998 265 75.2998V195.3C265 206.3 274 215.3 285 215.3H315C326 215.3 335 206.3 335 195.3V75.2998C335 64.2998 326 55.2998 315 55.2998Z" fill="#252525"/>
<path d="M250 55.2998H200C194.5 55.2998 190 59.7998 190 65.2998C190 70.7998 194.5 75.2998 200 75.2998H250C255.5 75.2998 260 70.7998 260 65.2998C260 59.7998 255.5 55.2998 250 55.2998Z" fill="#252525"/>
<path d="M201 59.7998H0.5V160.8H91.5V70.7998H201.5L201 59.7998Z" fill="#252525"/>
<path d="M90.5 70.7998H1.5V159.8H90.5V70.7998Z" fill="#FCBB03"/>
<path d="M90.5 70.7998L1.5 159.8V70.7998H90.5Z" fill="#FD3E1D"/>
<path d="M400 55.2998H350C344.5 55.2998 340 59.7998 340 65.2998C340 70.7998 344.5 75.2998 350 75.2998H400C405.5 75.2998 410 70.7998 410 65.2998C410 59.7998 405.5 55.2998 400 55.2998Z" fill="#252525"/>
<path d="M600 59.7998H399.5V70.7998H509.5V160.8H600.5L600 59.7998Z" fill="#252525"/>
<path d="M599.5 70.7998H510.5V159.8H599.5V70.7998Z" fill="#FCBB03"/>
<path d="M599.5 70.7998H510.5L599.5 159.8V70.7998Z" fill="#FD3E1D"/>
</g>
<defs>
<clipPath id="clip0">
<rect width="600" height="315" transform="matrix(-1 0 0 1 600 0.299805)" fill="white"/>
</clipPath>
</defs>
</svg>
