<svg width="600" height="600" viewBox="0 0 600 600" fill="none" xmlns="http://www.w3.org/2000/svg">
<g clip-path="url(#clip0)">
<rect width="600" height="600" fill="white"/>
<path d="M301 242.3C314.807 242.3 326 231.107 326 217.3C326 203.493 314.807 192.3 301 192.3C287.193 192.3 276 203.493 276 217.3C276 231.107 287.193 242.3 301 242.3Z" fill="#252525"/>
<path d="M286 247.3H316C327 247.3 336 256.3 336 267.3V387.3C336 398.3 327 407.3 316 407.3H286C275 407.3 266 398.3 266 387.3V267.3C266 256.3 275 247.3 286 247.3Z" fill="#252525"/>
<path d="M351 247.3H401C406.5 247.3 411 251.8 411 257.3C411 262.8 406.5 267.3 401 267.3H351C345.5 267.3 341 262.8 341 257.3C341 251.8 345.5 247.3 351 247.3Z" fill="#252525"/>
<path d="M400 251.8H600.5V352.8H509.5V262.8H399.5L400 251.8Z" fill="#252525"/>
<path d="M510.5 262.8H599.5V351.8H510.5V262.8Z" fill="#FCBB03"/>
<path d="M510.5 262.8L599.5 351.8V262.8H510.5Z" fill="#FD3E1D"/>
<path d="M201 247.3H251C256.5 247.3 261 251.8 261 257.3C261 262.8 256.5 267.3 251 267.3H201C195.5 267.3 191 262.8 191 257.3C191 251.8 195.5 247.3 201 247.3Z" fill="#252525"/>
<path d="M1 251.8H201.5V262.8H91.5V352.8H0.5L1 251.8Z" fill="#252525"/>
<path d="M1.5 262.8H90.5V351.8H1.5V262.8Z" fill="#FCBB03"/>
<path d="M1.5 262.8H90.5L1.5 351.8V262.8Z" fill="#FD3E1D"/>
</g>
<defs>
<clipPath id="clip0">
<rect width="600" height="600" fill="white"/>
</clipPath>
</defs>
</svg>
