<svg width="600" height="600" viewBox="0 0 600 600" fill="none" xmlns="http://www.w3.org/2000/svg">
<g clip-path="url(#clip0)">
<rect width="600" height="600" transform="matrix(-1 0 0 1 600 0)" fill="white"/>
<path d="M299 242.3C285.193 242.3 274 231.107 274 217.3C274 203.493 285.193 192.3 299 192.3C312.807 192.3 324 203.493 324 217.3C324 231.107 312.807 242.3 299 242.3Z" fill="#252525"/>
<path d="M314 247.3H284C273 247.3 264 256.3 264 267.3V387.3C264 398.3 273 407.3 284 407.3H314C325 407.3 334 398.3 334 387.3V267.3C334 256.3 325 247.3 314 247.3Z" fill="#252525"/>
<path d="M249 247.3H199C193.5 247.3 189 251.8 189 257.3C189 262.8 193.5 267.3 199 267.3H249C254.5 267.3 259 262.8 259 257.3C259 251.8 254.5 247.3 249 247.3Z" fill="#252525"/>
<path d="M200 251.8H-0.5V352.8H90.5V262.8H200.5L200 251.8Z" fill="#252525"/>
<path d="M89.5 262.8H0.5V351.8H89.5V262.8Z" fill="#FCBB03"/>
<path d="M89.5 262.8L0.5 351.8V262.8H89.5Z" fill="#FD3E1D"/>
<path d="M399 247.3H349C343.5 247.3 339 251.8 339 257.3C339 262.8 343.5 267.3 349 267.3H399C404.5 267.3 409 262.8 409 257.3C409 251.8 404.5 247.3 399 247.3Z" fill="#252525"/>
<path d="M599 251.8H398.5V262.8H508.5V352.8H599.5L599 251.8Z" fill="#252525"/>
<path d="M598.5 262.8H509.5V351.8H598.5V262.8Z" fill="#FCBB03"/>
<path d="M598.5 262.8H509.5L598.5 351.8V262.8Z" fill="#FD3E1D"/>
</g>
<defs>
<clipPath id="clip0">
<rect width="600" height="600" transform="matrix(-1 0 0 1 600 0)" fill="white"/>
</clipPath>
</defs>
</svg>
