<svg width="600" height="316" viewBox="0 0 600 316" fill="none" xmlns="http://www.w3.org/2000/svg">
<g clip-path="url(#clip0)">
<path d="M300 50.2998C313.807 50.2998 325 39.1069 325 25.2998C325 11.4927 313.807 0.299805 300 0.299805C286.193 0.299805 275 11.4927 275 25.2998C275 39.1069 286.193 50.2998 300 50.2998Z" fill="#252525"/>
<path d="M285 55.2998H315C326 55.2998 335 64.2998 335 75.2998V195.3C335 206.3 326 215.3 315 215.3H285C274 215.3 265 206.3 265 195.3V75.2998C265 64.2998 274 55.2998 285 55.2998Z" fill="#252525"/>
<path d="M350 55.2998H400C405.5 55.2998 410 59.7998 410 65.2998C410 70.7998 405.5 75.2998 400 75.2998H350C344.5 75.2998 340 70.7998 340 65.2998C340 59.7998 344.5 55.2998 350 55.2998Z" fill="#252525"/>
<path d="M399 59.7998H599.5V160.8H508.5V70.7998H398.5L399 59.7998Z" fill="#252525"/>
<path d="M509.5 70.7998H598.5V159.8H509.5V70.7998Z" fill="#FCBB03"/>
<path d="M509.5 70.7998L598.5 159.8V70.7998H509.5Z" fill="#FD3E1D"/>
<path d="M200 55.2998H250C255.5 55.2998 260 59.7998 260 65.2998C260 70.7998 255.5 75.2998 250 75.2998H200C194.5 75.2998 190 70.7998 190 65.2998C190 59.7998 194.5 55.2998 200 55.2998Z" fill="#252525"/>
<path d="M0 59.7998H200.5V70.7998H90.5V160.8H-0.5L0 59.7998Z" fill="#252525"/>
<path d="M0.5 70.7998H89.5V159.8H0.5V70.7998Z" fill="#FCBB03"/>
<path d="M0.5 70.7998H89.5L0.5 159.8V70.7998Z" fill="#FD3E1D"/>
</g>
<defs>
<clipPath id="clip0">
<rect y="0.299805" width="600" height="315" fill="white"/>
</clipPath>
</defs>
</svg>
