<svg width="600" height="600" viewBox="0 0 600 600" fill="none" xmlns="http://www.w3.org/2000/svg">
<rect width="600" height="600" fill="white"/>
<g clip-path="url(#clip0)">
<path d="M334 192.3C347.807 192.3 359 181.107 359 167.3C359 153.493 347.807 142.3 334 142.3C320.193 142.3 309 153.493 309 167.3C309 181.107 320.193 192.3 334 192.3Z" fill="#252525"/>
<path d="M319 197.3H349C360 197.3 369 206.3 369 217.3V337.3C369 348.3 360 357.3 349 357.3H319C308 357.3 299 348.3 299 337.3V217.3C299 206.3 308 197.3 319 197.3Z" fill="#252525"/>
<path d="M391.001 204.987L426.427 240.414C430.316 244.303 430.316 250.667 426.427 254.556C422.538 258.445 416.174 258.445 412.285 254.556L376.859 219.13C372.97 215.241 372.97 208.877 376.859 204.987C380.748 201.098 387.112 201.098 391.001 204.987Z" fill="#252525"/>
<path d="M422.396 242.888L564.171 384.663L492.753 456.081L428.477 391.805L492.046 328.236L414.264 250.454L422.396 242.888Z" fill="#252525"/>
<path d="M492.824 328.873L555.757 391.805L492.824 454.738L429.892 391.805L492.824 328.873Z" fill="#FCBB03"/>
<path d="M492.824 328.873V454.738L555.757 391.805L492.824 328.873Z" fill="#FD3E1D"/>
<path d="M234 197.3H284C289.5 197.3 294 201.8 294 207.3C294 212.8 289.5 217.3 284 217.3H234C228.5 217.3 224 212.8 224 207.3C224 201.8 228.5 197.3 234 197.3Z" fill="#252525"/>
<path d="M34 201.8H234.5V212.8H124.5V302.8H33.5L34 201.8Z" fill="#252525"/>
<path d="M34.5 212.8H123.5V301.8H34.5V212.8Z" fill="#FCBB03"/>
<path d="M34.5 212.8H123.5L34.5 301.8V212.8Z" fill="#FD3E1D"/>
</g>
<defs>
<clipPath id="clip0">
<rect x="33" y="142" width="534.423" height="315" fill="white"/>
</clipPath>
</defs>
</svg>
