<svg width="600" height="600" viewBox="0 0 600 600" fill="none" xmlns="http://www.w3.org/2000/svg">
<rect width="600" height="600" transform="matrix(-1 0 0 1 600 0)" fill="white"/>
<g clip-path="url(#clip0)">
<path d="M266 192.3C252.193 192.3 241 181.107 241 167.3C241 153.493 252.193 142.3 266 142.3C279.807 142.3 291 153.493 291 167.3C291 181.107 279.807 192.3 266 192.3Z" fill="#252525"/>
<path d="M281 197.3H251C240 197.3 231 206.3 231 217.3V337.3C231 348.3 240 357.3 251 357.3H281C292 357.3 301 348.3 301 337.3V217.3C301 206.3 292 197.3 281 197.3Z" fill="#252525"/>
<path d="M209 204.987L173.574 240.414C169.685 244.303 169.685 250.667 173.574 254.556C177.463 258.445 183.827 258.445 187.716 254.556L223.142 219.13C227.031 215.241 227.031 208.877 223.142 204.987C219.253 201.098 212.889 201.098 209 204.987Z" fill="#252525"/>
<path d="M177.604 242.888L35.8295 384.663L107.247 456.081L171.523 391.805L107.954 328.236L185.736 250.454L177.604 242.888Z" fill="#252525"/>
<path d="M107.176 328.873L44.2438 391.805L107.176 454.738L170.109 391.805L107.176 328.873Z" fill="#FCBB03"/>
<path d="M107.176 328.873V454.738L44.2438 391.805L107.176 328.873Z" fill="#FD3E1D"/>
<path d="M366 197.3H316C310.5 197.3 306 201.8 306 207.3C306 212.8 310.5 217.3 316 217.3H366C371.5 217.3 376 212.8 376 207.3C376 201.8 371.5 197.3 366 197.3Z" fill="#252525"/>
<path d="M566 201.8H365.5V212.8H475.5V302.8H566.5L566 201.8Z" fill="#252525"/>
<path d="M565.5 212.8H476.5V301.8H565.5V212.8Z" fill="#FCBB03"/>
<path d="M565.5 212.8H476.5L565.5 301.8V212.8Z" fill="#FD3E1D"/>
</g>
<defs>
<clipPath id="clip0">
<rect width="534.423" height="315" transform="matrix(-1 0 0 1 567 142)" fill="white"/>
</clipPath>
</defs>
</svg>
