<svg width="600" height="600" viewBox="0 0 600 600" fill="none" xmlns="http://www.w3.org/2000/svg">
<rect width="600" height="600" fill="white"/>
<path fill-rule="evenodd" clip-rule="evenodd" d="M400 310C400 323.8 388.8 335 375 335C361.2 335 350 323.8 350 310C350 296.2 361.2 285 375 285C388.8 285 400 296.2 400 310Z" fill="#252525"/>
<path fill-rule="evenodd" clip-rule="evenodd" d="M360 340H390C401 340 410 349.6 410 361.3V478.6C410 490.4 401 499.9 390 499.9H360C349 499.9 340 490.3 340 478.6V361.3C340 349.6 349 340 360 340Z" fill="#252525"/>
<path fill-rule="evenodd" clip-rule="evenodd" d="M415 350V300C415 294.5 419.5 290 425 290C430.5 290 435 294.5 435 300V350C435 355.5 430.5 360 425 360C419.5 360 415 355.5 415 350Z" fill="#252525"/>
<path d="M430 100H420V300H430V100Z" fill="#252525"/>
<path fill-rule="evenodd" clip-rule="evenodd" d="M520 190H430V100H520V190Z" fill="#FCBB03"/>
<path fill-rule="evenodd" clip-rule="evenodd" d="M430 190V100H520L430 190Z" fill="#FD3E1D"/>
<path fill-rule="evenodd" clip-rule="evenodd" d="M317.9 357.1L282.5 321.7C278.6 317.8 278.6 311.5 282.5 307.6C286.4 303.7 292.7 303.7 296.6 307.6L332 343C335.9 346.9 335.9 353.2 332 357.1C328.2 361 321.8 361 317.9 357.1Z" fill="#252525"/>
<path d="M151.71 169.688L144.639 176.759L286.059 318.179L293.13 311.108L151.71 169.688Z" fill="#252525"/>
<path fill-rule="evenodd" clip-rule="evenodd" d="M144.7 304L81 240.4L144.6 176.8L208.2 240.4L144.7 304Z" fill="#FCBB03"/>
<path fill-rule="evenodd" clip-rule="evenodd" d="M81 240.4L144.6 176.8L208.2 240.4H81Z" fill="#FD3E1D"/>
</svg>
