<svg width="600" height="600" viewBox="0 0 600 600" fill="none" xmlns="http://www.w3.org/2000/svg">
<rect width="600" height="600" fill="white"/>
<path fill-rule="evenodd" clip-rule="evenodd" d="M325 274.6C325 288.4 313.8 299.6 300 299.6C286.2 299.6 275 288.4 275 274.6C275 260.8 286.2 249.6 300 249.6C313.8 249.6 325 260.8 325 274.6Z" fill="#252525"/>
<path fill-rule="evenodd" clip-rule="evenodd" d="M285 304.6H315C326 304.6 335 314.2 335 325.9V443.3C335 455.1 326 464.6 315 464.6H285C274 464.6 265 455 265 443.3V325.9C265 314.2 274 304.6 285 304.6Z" fill="#252525"/>
<path fill-rule="evenodd" clip-rule="evenodd" d="M342.9 307.5L378.3 272.1C382.2 268.2 388.5 268.2 392.4 272.1C396.3 276 396.3 282.3 392.4 286.2L357 321.6C353.1 325.5 346.8 325.5 342.9 321.6C339 317.8 339 311.4 342.9 307.5Z" fill="#252525"/>
<path d="M523.229 134.247L381.809 275.667L388.88 282.738L530.3 141.318L523.229 134.247Z" fill="#252525"/>
<path fill-rule="evenodd" clip-rule="evenodd" d="M530.299 268.7L466.699 205.1L530.299 141.5L593.999 205L530.299 268.7Z" fill="#FCBB03"/>
<path fill-rule="evenodd" clip-rule="evenodd" d="M466.699 205L530.299 141.4L593.999 205H466.699Z" fill="#FD3E1D"/>
<path fill-rule="evenodd" clip-rule="evenodd" d="M242.9 321.7L207.6 286.3C203.7 282.4 203.7 276.1 207.6 272.2C211.5 268.3 217.8 268.3 221.7 272.2L257.1 307.6C261 311.5 261 317.8 257.1 321.7C253.2 325.6 246.8 325.6 242.9 321.7Z" fill="#252525"/>
<path d="M76.7009 134.292L69.6299 141.363L211.05 282.783L218.121 275.712L76.7009 134.292Z" fill="#252525"/>
<path fill-rule="evenodd" clip-rule="evenodd" d="M69.7 268.7L6 205L69.7 141.4L133.3 205L69.7 268.7Z" fill="#FCBB03"/>
<path fill-rule="evenodd" clip-rule="evenodd" d="M6 205L69.7 141.4L133.3 205H6Z" fill="#FD3E1D"/>
</svg>
