<svg width="600" height="431" viewBox="0 0 600 431" fill="none" xmlns="http://www.w3.org/2000/svg">
<g clip-path="url(#clip0)">
<path fill-rule="evenodd" clip-rule="evenodd" d="M275 140.6C275 154.4 286.2 165.6 300 165.6C313.8 165.6 325 154.4 325 140.6C325 126.8 313.8 115.6 300 115.6C286.2 115.6 275 126.8 275 140.6Z" fill="#252525"/>
<path fill-rule="evenodd" clip-rule="evenodd" d="M315 170.6H285C274 170.6 265 180.2 265 191.9V309.3C265 321.1 274 330.6 285 330.6H315C326 330.6 335 321 335 309.3V191.9C335 180.2 326 170.6 315 170.6Z" fill="#252525"/>
<path fill-rule="evenodd" clip-rule="evenodd" d="M257.1 173.5L221.7 138.1C217.8 134.2 211.5 134.2 207.6 138.1C203.7 142 203.7 148.3 207.6 152.2L243 187.6C246.9 191.5 253.2 191.5 257.1 187.6C261 183.8 261 177.4 257.1 173.5Z" fill="#252525"/>
<path d="M76.7714 0.246531L218.191 141.667L211.12 148.738L69.7004 7.31753L76.7714 0.246531Z" fill="#252525"/>
<path fill-rule="evenodd" clip-rule="evenodd" d="M69.7008 134.7L133.301 71.1L69.7008 7.5L6.00079 71L69.7008 134.7Z" fill="#FCBB03"/>
<path fill-rule="evenodd" clip-rule="evenodd" d="M133.301 70.9999L69.7008 7.3999L6.00079 70.9999H133.301Z" fill="#FD3E1D"/>
<path fill-rule="evenodd" clip-rule="evenodd" d="M357.099 187.7L392.399 152.3C396.299 148.4 396.299 142.1 392.399 138.2C388.499 134.3 382.199 134.3 378.299 138.2L342.899 173.6C338.999 177.5 338.999 183.8 342.899 187.7C346.799 191.6 353.199 191.6 357.099 187.7Z" fill="#252525"/>
<path d="M523.298 0.292282L530.369 7.36328L388.949 148.783L381.878 141.712L523.298 0.292282Z" fill="#252525"/>
<path fill-rule="evenodd" clip-rule="evenodd" d="M530.3 134.7L594 70.9999L530.3 7.3999L466.7 70.9999L530.3 134.7Z" fill="#FCBB03"/>
<path fill-rule="evenodd" clip-rule="evenodd" d="M594 70.9999L530.3 7.3999L466.7 70.9999H594Z" fill="#FD3E1D"/>
</g>
<defs>
<clipPath id="clip0">
<rect width="600" height="430.3" transform="matrix(-1 0 0 1 600 0.299805)" fill="white"/>
</clipPath>
</defs>
</svg>
