<svg width="600" height="600" viewBox="0 0 600 600" fill="none" xmlns="http://www.w3.org/2000/svg">
<rect width="600" height="600" fill="white"/>
<path fill-rule="evenodd" clip-rule="evenodd" d="M282 262.3C282 276.1 270.8 287.3 257 287.3C243.2 287.3 232 276.1 232 262.3C232 248.5 243.2 237.3 257 237.3C270.8 237.3 282 248.5 282 262.3Z" fill="#252525"/>
<path fill-rule="evenodd" clip-rule="evenodd" d="M242 292.3H272C283 292.3 292 301.9 292 313.6V430.9C292 442.7 283 452.2 272 452.2H242C231 452.2 222 442.6 222 430.9V313.6C222 301.9 231 292.3 242 292.3Z" fill="#252525"/>
<path fill-rule="evenodd" clip-rule="evenodd" d="M314.1 295.2L349.5 330.6C353.4 334.5 353.4 340.8 349.5 344.7C345.6 348.6 339.3 348.6 335.4 344.7L300 309.3C296.1 305.4 296.1 299.1 300 295.2C303.8 291.3 310.2 291.3 314.1 295.2Z" fill="#252525"/>
<path d="M345.934 334.122L338.863 341.193L480.283 482.613L487.354 475.542L345.934 334.122Z" fill="#252525"/>
<path fill-rule="evenodd" clip-rule="evenodd" d="M353 482.6L416.6 419L480.2 482.6L416.6 546.3L353 482.6Z" fill="#FCBB03"/>
<path fill-rule="evenodd" clip-rule="evenodd" d="M416.601 419L480.201 482.6L416.601 546.3V419Z" fill="#FD3E1D"/>
<path fill-rule="evenodd" clip-rule="evenodd" d="M197 302.3V252.3C197 246.8 201.5 242.3 207 242.3C212.5 242.3 217 246.8 217 252.3V302.3C217 307.8 212.5 312.3 207 312.3C201.5 312.3 197 307.8 197 302.3Z" fill="#252525"/>
<path d="M212 52.3H202V252.3H212V52.3Z" fill="#252525"/>
<path fill-rule="evenodd" clip-rule="evenodd" d="M112 142.3V52.3H202V142.3H112Z" fill="#FCBB03"/>
<path fill-rule="evenodd" clip-rule="evenodd" d="M112 52.3H202V142.3L112 52.3Z" fill="#FD3E1D"/>
</svg>
