<svg width="600" height="431" viewBox="0 0 600 431" fill="none" xmlns="http://www.w3.org/2000/svg">
<g clip-path="url(#clip0)">
<path fill-rule="evenodd" clip-rule="evenodd" d="M325 140.6C325 154.4 313.8 165.6 300 165.6C286.2 165.6 275 154.4 275 140.6C275 126.8 286.2 115.6 300 115.6C313.8 115.6 325 126.8 325 140.6Z" fill="#252525"/>
<path fill-rule="evenodd" clip-rule="evenodd" d="M285 170.6H315C326 170.6 335 180.2 335 191.9V309.3C335 321.1 326 330.6 315 330.6H285C274 330.6 265 321 265 309.3V191.9C265 180.2 274 170.6 285 170.6Z" fill="#252525"/>
<path fill-rule="evenodd" clip-rule="evenodd" d="M350 170.6H400C405.5 170.6 410 175.1 410 180.6C410 186.1 405.5 190.6 400 190.6H350C344.5 190.6 340 186.1 340 180.6C340 175.1 344.5 170.6 350 170.6Z" fill="#252525"/>
<path d="M600 175.6H400V185.6H600V175.6Z" fill="#252525" stroke="#252525"/>
<path fill-rule="evenodd" clip-rule="evenodd" d="M510 275.6V185.6H600V275.6H510Z" fill="#FCBB03"/>
<path fill-rule="evenodd" clip-rule="evenodd" d="M510 185.6H600V275.6L510 185.6Z" fill="#FD3E1D"/>
<path fill-rule="evenodd" clip-rule="evenodd" d="M510 275.6V185.6H600V275.6H510Z" stroke="#252525" stroke-linejoin="round"/>
<path fill-rule="evenodd" clip-rule="evenodd" d="M274.9 173.5L310.3 138.1C314.2 134.2 320.5 134.2 324.4 138.1C328.3 142 328.3 148.3 324.4 152.2L289 187.6C285.1 191.5 278.8 191.5 274.9 187.6C271 183.8 271 177.4 274.9 173.5Z" fill="#252525"/>
<path d="M455.229 0.246265L313.809 141.666L320.88 148.737L462.3 7.31726L455.229 0.246265Z" fill="#252525" stroke="#252525"/>
<path fill-rule="evenodd" clip-rule="evenodd" d="M462.3 134.7L398.7 71.1L462.3 7.5L526 71L462.3 134.7Z" fill="#FCBB03"/>
<path fill-rule="evenodd" clip-rule="evenodd" d="M398.7 71.0001L462.3 7.40015L526 71.0001H398.7Z" fill="#FD3E1D"/>
<path fill-rule="evenodd" clip-rule="evenodd" d="M462.3 134.7L398.7 71.1L462.3 7.5L526 71L462.3 134.7Z" stroke="#252525" stroke-linejoin="round"/>
</g>
<defs>
<clipPath id="clip0">
<rect y="0.300049" width="600" height="430.3" fill="white"/>
</clipPath>
</defs>
</svg>
