<svg width="600" height="600" viewBox="0 0 600 600" fill="none" xmlns="http://www.w3.org/2000/svg">
<rect width="600" height="600" fill="white"/>
<path fill-rule="evenodd" clip-rule="evenodd" d="M227 227.6C227 241.4 215.8 252.6 202 252.6C188.2 252.6 177 241.4 177 227.6C177 213.8 188.2 202.6 202 202.6C215.8 202.6 227 213.8 227 227.6Z" fill="#252525"/>
<path fill-rule="evenodd" clip-rule="evenodd" d="M187 257.6H217C228 257.6 237 267.2 237 278.9V396.3C237 408.1 228 417.6 217 417.6H187C176 417.6 167 408 167 396.3V278.9C167 267.2 176 257.6 187 257.6Z" fill="#252525"/>
<path fill-rule="evenodd" clip-rule="evenodd" d="M259.099 260.5L294.499 295.9C298.399 299.8 298.399 306.1 294.499 310C290.599 313.9 284.299 313.9 280.399 310L244.999 274.6C241.099 270.7 241.099 264.4 244.999 260.5C248.799 256.6 255.199 256.6 259.099 260.5Z" fill="#252525"/>
<path d="M290.925 299.425L283.854 306.496L425.274 447.916L432.345 440.845L290.925 299.425Z" fill="#252525"/>
<path fill-rule="evenodd" clip-rule="evenodd" d="M298 447.9L361.6 384.3L425.2 447.9L361.6 511.5L298 447.9Z" fill="#FCBB03"/>
<path fill-rule="evenodd" clip-rule="evenodd" d="M361.6 384.3L425.2 447.9L361.6 511.5V384.3Z" fill="#FD3E1D"/>
<path fill-rule="evenodd" clip-rule="evenodd" d="M176.9 260.5L212.3 225.1C216.2 221.2 222.5 221.2 226.4 225.1C230.3 229 230.3 235.3 226.4 239.2L191 274.6C187.1 278.5 180.8 278.5 176.9 274.6C173 270.8 173 264.4 176.9 260.5Z" fill="#252525"/>
<path d="M357.229 87.2461L215.809 228.666L222.88 235.737L364.3 94.3171L357.229 87.2461Z" fill="#252525"/>
<path fill-rule="evenodd" clip-rule="evenodd" d="M364.299 221.7L300.699 158.1L364.299 94.4998L427.999 158L364.299 221.7Z" fill="#FCBB03"/>
<path fill-rule="evenodd" clip-rule="evenodd" d="M300.699 158L364.299 94.3998L427.999 158H300.699Z" fill="#FD3E1D"/>
</svg>
