<svg width="600" height="431" viewBox="0 0 600 431" fill="none" xmlns="http://www.w3.org/2000/svg">
<g clip-path="url(#clip0)">
<path fill-rule="evenodd" clip-rule="evenodd" d="M275 140.6C275 154.4 286.2 165.6 300 165.6C313.8 165.6 325 154.4 325 140.6C325 126.8 313.8 115.6 300 115.6C286.2 115.6 275 126.8 275 140.6Z" fill="#252525"/>
<path fill-rule="evenodd" clip-rule="evenodd" d="M315 170.6H285C274 170.6 265 180.2 265 191.9V309.3C265 321.1 274 330.6 285 330.6H315C326 330.6 335 321 335 309.3V191.9C335 180.2 326 170.6 315 170.6Z" fill="#252525"/>
<path fill-rule="evenodd" clip-rule="evenodd" d="M250 170.6H200C194.5 170.6 190 175.1 190 180.6C190 186.1 194.5 190.6 200 190.6H250C255.5 190.6 260 186.1 260 180.6C260 175.1 255.5 170.6 250 170.6Z" fill="#252525"/>
<path d="M0 175.6H200V185.6H0V175.6Z" fill="#252525"/>
<path fill-rule="evenodd" clip-rule="evenodd" d="M90 275.6V185.6H0V275.6H90Z" fill="#FCBB03"/>
<path fill-rule="evenodd" clip-rule="evenodd" d="M90 185.6H0V275.6L90 185.6Z" fill="#FD3E1D"/>
<path fill-rule="evenodd" clip-rule="evenodd" d="M357.1 187.699L392.4 152.299C396.3 148.399 396.3 142.099 392.4 138.199C388.5 134.299 382.2 134.299 378.3 138.199L342.9 173.599C339 177.499 339 183.799 342.9 187.699C346.8 191.599 353.2 191.599 357.1 187.699Z" fill="#252525"/>
<path d="M523.31 0.248336L530.381 7.31934L388.961 148.739L381.89 141.668L523.31 0.248336Z" fill="#252525"/>
<path fill-rule="evenodd" clip-rule="evenodd" d="M530.3 134.699L594 70.9994L530.3 7.39941L466.7 70.9994L530.3 134.699Z" fill="#FCBB03"/>
<path fill-rule="evenodd" clip-rule="evenodd" d="M594 70.9994L530.3 7.39941L466.7 70.9994H594Z" fill="#FD3E1D"/>
</g>
<defs>
<clipPath id="clip0">
<rect width="600" height="430.3" transform="matrix(-1 0 0 1 600 0.299805)" fill="white"/>
</clipPath>
</defs>
</svg>
