<svg width="185" height="182" viewBox="0 0 185 182" fill="none" xmlns="http://www.w3.org/2000/svg">
<path d="M107.971 80.872L92.1904 33.2139H167.041C170.063 33.2148 172.96 34.4156 175.097 36.5522C177.234 38.6888 178.434 41.5864 178.435 44.608V164.315C178.434 167.337 177.234 170.234 175.097 172.371C172.96 174.508 170.063 175.708 167.041 175.709H99.0039L128.851 143.936L107.971 80.872Z" fill="white"/>
<path d="M132.61 149.111L102.764 180.885L92.1904 149.111H132.61Z" fill="#333333"/>
<path d="M117.37 137.205L121.504 124.904H145.603L149.737 137.205H164.257L139.856 66.6221H127.857L103.354 137.205H117.37ZM133.604 87.5954L141.267 111.795H126.042L133.604 87.5954Z" fill="#333333"/>
<path d="M122.509 122.985L129.211 143.22H13.0325C11.5356 143.22 10.0533 142.926 8.67024 142.353C7.28718 141.781 6.03051 140.941 4.97204 139.883C3.91356 138.824 3.07403 137.567 2.50141 136.184C1.92878 134.801 1.63429 133.319 1.63477 131.822V12.1149C1.63477 10.6183 1.9296 9.13632 2.50244 7.75368C3.07528 6.37104 3.91489 5.1148 4.97331 4.0567C6.03174 2.99861 7.28825 2.1594 8.67107 1.587C10.0539 1.0146 11.5359 0.720231 13.0325 0.720704H82.0313L92.5504 32.494L108.331 80.1522L122.509 122.985Z" fill="url(#paint0_linear)"/>
<path d="M128.85 143.937L7.22021 143.689L82.9604 3.53027L93.2707 36.4307L128.85 143.937Z" fill="url(#paint1_linear)"/>
<path d="M169.375 31.7733H97.1349L87.4333 2.47763C87.1963 1.7558 86.737 1.12744 86.1212 0.682427C85.5055 0.237414 84.7647 -0.00145004 84.005 6.62291e-06H15.0062C11.0274 0.00382039 7.21279 1.58605 4.39941 4.39942C1.58604 7.2128 0.00381377 11.0275 0 15.0062L0 134.713C0.00381377 138.692 1.58604 142.507 4.39941 145.32C7.21279 148.133 11.0274 149.716 15.0062 149.719H88.1607L97.9128 179.022C98.1496 179.744 98.6083 180.372 99.2234 180.817C99.8384 181.261 100.578 181.501 101.337 181.5H169.375C173.355 181.496 177.171 179.913 179.984 177.098C182.798 174.283 184.379 170.467 184.381 166.487V46.7795C184.377 42.8008 182.795 38.9861 179.982 36.1727C177.168 33.3593 173.354 31.7771 169.375 31.7733ZM7.22039 134.713V15.0062C7.22324 12.9421 8.04445 10.9634 9.50394 9.50395C10.9634 8.04445 12.9421 7.22325 15.0062 7.22039H81.3869L121 126.895V126.935L126.186 142.499H15.0062C12.9421 142.496 10.9634 141.675 9.50394 140.216C8.04445 138.756 7.22324 136.777 7.22039 134.713ZM95.7917 149.719H122.858L102.872 170.999L95.7917 149.719ZM177.179 166.487C177.176 168.551 176.355 170.529 174.895 171.989C173.436 173.448 171.457 174.27 169.393 174.272H109.681L133.809 148.582C133.918 148.469 134.018 148.349 134.108 148.221C134.442 147.759 134.662 147.225 134.749 146.661C134.836 146.098 134.788 145.522 134.609 144.98L99.5261 38.9937H169.389C171.454 38.9956 173.433 39.8164 174.894 41.276C176.354 42.7356 177.176 44.7148 177.179 46.7795V166.487Z" fill="#333333"/>
<path d="M87.4163 7.69079L81.0464 4.29102L7.53152 142.03L13.9014 145.43L87.4163 7.69079Z" fill="#333333"/>
<defs>
<linearGradient id="paint0_linear" x1="24.9679" y1="144.048" x2="26.8886" y2="0.000460855" gradientUnits="userSpaceOnUse">
<stop stop-color="#FF3C00"/>
<stop offset="1" stop-color="#FF7B01"/>
</linearGradient>
<linearGradient id="paint1_linear" x1="99.873" y1="3.84163" x2="68.0353" y2="143.937" gradientUnits="userSpaceOnUse">
<stop stop-color="#FC9803"/>
<stop offset="1" stop-color="#FFD459"/>
</linearGradient>
</defs>
</svg>
