<?xml version="1.0" encoding="utf-8"?>
<!-- Generator: Adobe Illustrator 23.0.6, SVG Export Plug-In . SVG Version: 6.00 Build 0)  -->
<svg version="1.1" id="Layer_1" xmlns="http://www.w3.org/2000/svg" xmlns:xlink="http://www.w3.org/1999/xlink" x="0px" y="0px"
	 viewBox="0 0 600 500" style="enable-background:new 0 0 600 500;" xml:space="preserve">
<style type="text/css">
	.st0{fill:#FFFFFF;}
	.st1{fill:#FCBB03;}
	.st2{fill:#FD3E1D;}
</style>
<circle class="st0" cx="300" cy="210" r="25"/>
<path class="st0" d="M285,240h30c11,0,20,9,20,20v120c0,11-9,20-20,20h-30c-11,0-20-9-20-20V260C265,249,274,240,285,240z"/>
<g transform="rotate(-90 350,250)">
	<g id="armL">
		<path class="st0" d="M340,250v-50c0-5.5,4.5-10,10-10l0,0c5.5,0,10,4.5,10,10v50c0,5.5-4.5,10-10,10l0,0
			C344.5,260,340,255.5,340,250z"/>
		<path class="st0" d="M344.5,201V0.5h101v91h-90v110L344.5,201z"/>
		<path class="st1" d="M355.5,90.5v-89h89v89H355.5z"/>
		<path class="st2" d="M355.5,90.5l89-89h-89V90.5z"/>
	</g>
</g>
<path class="st0" d="M200,240h50c5.5,0,10,4.5,10,10l0,0c0,5.5-4.5,10-10,10h-50c-5.5,0-10-4.5-10-10l0,0
	C190,244.5,194.5,240,200,240z"/>
<path class="st0" d="M0,244.5h200.5v11h-110v90h-91L0,244.5z"/>
<path class="st1" d="M0.5,255.5h89v89h-89V255.5z"/>
<path class="st2" d="M0.5,255.5h89l-89,89V255.5z"/>
</svg>
