<?xml version="1.0" encoding="utf-8"?>
<!-- Generator: Adobe Illustrator 23.0.6, SVG Export Plug-In . SVG Version: 6.00 Build 0)  -->
<svg version="1.1" id="Layer_1" xmlns="http://www.w3.org/2000/svg" xmlns:xlink="http://www.w3.org/1999/xlink" x="0px" y="0px"
	 viewBox="0 0 600 315" style="enable-background:new 0 0 600 315;" xml:space="preserve">
<style type="text/css">
	.st0{fill:#FFFFFF;}
	.st1{fill:#FCBB03;}
	.st2{fill:#FD3E1D;}
</style>
<circle class="st0" cx="300" cy="25" r="25"/>
<path class="st0" d="M285,55h30c11,0,20,9,20,20v120c0,11-9,20-20,20h-30c-11,0-20-9-20-20V75C265,64,274,55,285,55z"/>
<g id="armL">
	<path class="st0" d="M350,55h50c5.5,0,10,4.5,10,10l0,0c0,5.5-4.5,10-10,10h-50c-5.5,0-10-4.5-10-10l0,0C340,59.5,344.5,55,350,55z
		"/>
	<path class="st0" d="M399,59.5h200.5v101h-91v-90h-110L399,59.5z"/>
	<path class="st1" d="M509.5,70.5h89v89h-89V70.5z"/>
	<path class="st2" d="M509.5,70.5l89,89v-89H509.5z"/>
</g>
<g id="armR">
	<path class="st0" d="M200,55h50c5.5,0,10,4.5,10,10l0,0c0,5.5-4.5,10-10,10h-50c-5.5,0-10-4.5-10-10l0,0C190,59.5,194.5,55,200,55z
		"/>
	<path class="st0" d="M0,59.5h200.5v11h-110v90h-91L0,59.5z"/>
	<path class="st1" d="M0.5,70.5h89v89h-89V70.5z"/>
	<path class="st2" d="M0.5,70.5h89l-89,89V70.5z"/>
</g>
</svg>
