<svg width="304" height="229" viewBox="0 0 304 229" fill="none" xmlns="http://www.w3.org/2000/svg">
<g filter="url(#filter0_d)">
<mask id="mask0" mask-type="alpha" maskUnits="userSpaceOnUse" x="-1080" y="60" width="1440" height="230">
<rect x="-1077.5" y="62.5" width="1435" height="224.474" fill="url(#paint0_linear)" stroke="white" stroke-width="5"/>
</mask>
<g mask="url(#mask0)">
<path fill-rule="evenodd" clip-rule="evenodd" d="M-1095.55 88.4207L-1113.48 70.4985C-1127.47 56.5005 -1150.17 56.5005 -1164.17 70.4985C-1186.75 93.0791 -1170.75 131.688 -1138.82 131.688H-1115.79V289.474H400V131.688H418.821C450.755 131.688 466.747 93.0791 444.167 70.4985C430.168 56.5005 407.473 56.5005 393.475 70.4985L375.553 88.4207C351.657 112.317 312.913 112.317 289.017 88.4207C265.121 64.5245 226.378 64.5245 202.482 88.4207C178.586 112.317 139.842 112.317 115.946 88.4207C92.0499 64.5245 53.3066 64.5245 29.4104 88.4207C5.51428 112.317 -33.229 112.317 -57.1252 88.4207C-81.0214 64.5245 -119.765 64.5245 -143.661 88.4207C-167.557 112.317 -206.3 112.317 -230.197 88.4207C-254.093 64.5245 -292.836 64.5245 -316.732 88.4207C-340.628 112.317 -379.372 112.317 -403.268 88.4207C-427.164 64.5245 -465.907 64.5245 -489.803 88.4207C-513.7 112.317 -552.443 112.317 -576.339 88.4207C-600.235 64.5245 -638.979 64.5245 -662.875 88.4207C-686.771 112.317 -725.514 112.317 -749.41 88.4207C-773.306 64.5245 -812.05 64.5245 -835.946 88.4207C-859.842 112.317 -898.585 112.317 -922.482 88.4207C-946.378 64.5245 -985.121 64.5245 -1009.02 88.4207C-1032.91 112.317 -1071.66 112.317 -1095.55 88.4207Z" fill="url(#paint1_linear)"/>
<path d="M-1113.48 70.4985L-1111.71 68.7308L-1111.71 68.7308L-1113.48 70.4985ZM-1095.55 88.4207L-1097.32 90.1884L-1097.32 90.1884L-1095.55 88.4207ZM-1164.17 70.4985L-1162.4 72.2663L-1162.4 72.2663L-1164.17 70.4985ZM-1115.79 131.688H-1113.29V129.188H-1115.79V131.688ZM-1115.79 289.474H-1118.29V291.974H-1115.79V289.474ZM400 289.474V291.974H402.5V289.474H400ZM400 131.688V129.188H397.5V131.688H400ZM444.167 70.4985L445.934 68.7308L445.934 68.7308L444.167 70.4985ZM393.475 70.4985L391.707 68.7308L391.707 68.7308L393.475 70.4985ZM375.553 88.4207L373.785 86.6529L373.785 86.6529L375.553 88.4207ZM289.017 88.4207L290.785 86.6529L290.785 86.6529L289.017 88.4207ZM202.482 88.4207L200.714 86.6529L200.714 86.6529L202.482 88.4207ZM115.946 88.4207L117.714 86.6529L117.714 86.6529L115.946 88.4207ZM29.4104 88.4207L27.6426 86.6529L27.6426 86.6529L29.4104 88.4207ZM-57.1252 88.4207L-58.893 90.1884L-58.893 90.1884L-57.1252 88.4207ZM-143.661 88.4207L-145.429 86.6529L-145.429 86.6529L-143.661 88.4207ZM-230.197 88.4207L-228.429 86.6529L-228.429 86.6529L-230.197 88.4207ZM-316.732 88.4207L-314.964 90.1884L-314.964 90.1884L-316.732 88.4207ZM-403.268 88.4207L-401.5 86.6529L-401.5 86.6529L-403.268 88.4207ZM-489.803 88.4207L-491.571 86.6529L-491.571 86.6529L-489.803 88.4207ZM-576.339 88.4207L-578.107 90.1884L-578.107 90.1884L-576.339 88.4207ZM-662.875 88.4207L-664.642 86.6529L-664.642 86.6529L-662.875 88.4207ZM-749.41 88.4207L-747.643 86.6529L-747.643 86.6529L-749.41 88.4207ZM-835.946 88.4207L-837.714 86.6529L-837.714 86.6529L-835.946 88.4207ZM-922.482 88.4207L-924.249 90.1884L-924.249 90.1884L-922.482 88.4207ZM-1009.02 88.4207L-1007.25 90.1884L-1007.25 90.1884L-1009.02 88.4207ZM-1115.24 72.2663L-1097.32 90.1884L-1093.79 86.6529L-1111.71 68.7308L-1115.24 72.2663ZM-1162.4 72.2663C-1149.38 59.2446 -1128.26 59.2446 -1115.24 72.2663L-1111.71 68.7308C-1126.68 53.7564 -1150.96 53.7564 -1165.93 68.7308L-1162.4 72.2663ZM-1138.82 129.188C-1168.53 129.188 -1183.4 93.272 -1162.4 72.2663L-1165.93 68.7308C-1190.09 92.8863 -1172.98 134.188 -1138.82 134.188V129.188ZM-1115.79 129.188H-1138.82V134.188H-1115.79V129.188ZM-1113.29 289.474V131.688H-1118.29V289.474H-1113.29ZM400 286.974H-1115.79V291.974H400V286.974ZM397.5 131.688V289.474H402.5V131.688H397.5ZM418.821 129.188H400V134.188H418.821V129.188ZM442.399 72.2663C463.404 93.272 448.527 129.188 418.821 129.188V134.188C452.982 134.188 470.09 92.8863 445.934 68.7308L442.399 72.2663ZM395.243 72.2663C408.265 59.2446 429.377 59.2446 442.399 72.2663L445.934 68.7308C430.96 53.7564 406.682 53.7564 391.707 68.7308L395.243 72.2663ZM377.321 90.1884L395.243 72.2663L391.707 68.7308L373.785 86.6529L377.321 90.1884ZM287.25 90.1884C312.122 115.061 352.448 115.061 377.321 90.1884L373.785 86.6529C350.865 109.573 313.705 109.573 290.785 86.6529L287.25 90.1884ZM204.249 90.1884C227.169 67.2686 264.33 67.2686 287.25 90.1884L290.785 86.6529C265.913 61.7804 225.586 61.7804 200.714 86.6529L204.249 90.1884ZM114.178 90.1884C139.051 115.061 179.377 115.061 204.249 90.1884L200.714 86.6529C177.794 109.573 140.634 109.573 117.714 86.6529L114.178 90.1884ZM31.1782 90.1884C54.0981 67.2686 91.2585 67.2686 114.178 90.1884L117.714 86.6529C92.8414 61.7804 52.5152 61.7804 27.6426 86.6529L31.1782 90.1884ZM-58.893 90.1884C-34.0205 115.061 6.30574 115.061 31.1782 90.1884L27.6426 86.6529C4.72283 109.573 -32.4375 109.573 -55.3575 86.6529L-58.893 90.1884ZM-141.893 90.1884C-118.973 67.2686 -81.8128 67.2686 -58.893 90.1884L-55.3575 86.6529C-80.2299 61.7804 -120.556 61.7804 -145.429 86.6529L-141.893 90.1884ZM-231.964 90.1884C-207.092 115.061 -166.766 115.061 -141.893 90.1884L-145.429 86.6529C-168.349 109.573 -205.509 109.573 -228.429 86.6529L-231.964 90.1884ZM-314.964 90.1884C-292.045 67.2686 -254.884 67.2686 -231.964 90.1884L-228.429 86.6529C-253.301 61.7804 -293.628 61.7804 -318.5 86.6529L-314.964 90.1884ZM-405.036 90.1884C-380.163 115.061 -339.837 115.061 -314.964 90.1884L-318.5 86.6529C-341.42 109.573 -378.58 109.573 -401.5 86.6529L-405.036 90.1884ZM-488.036 90.1884C-465.116 67.2686 -427.955 67.2686 -405.036 90.1884L-401.5 86.6529C-426.373 61.7804 -466.699 61.7804 -491.571 86.6529L-488.036 90.1884ZM-578.107 90.1884C-553.234 115.061 -512.908 115.061 -488.036 90.1884L-491.571 86.6529C-514.491 109.573 -551.651 109.573 -574.571 86.6529L-578.107 90.1884ZM-661.107 90.1884C-638.187 67.2686 -601.027 67.2686 -578.107 90.1884L-574.571 86.6529C-599.444 61.7804 -639.77 61.7804 -664.642 86.6529L-661.107 90.1884ZM-751.178 90.1884C-726.306 115.061 -685.979 115.061 -661.107 90.1884L-664.642 86.6529C-687.562 109.573 -724.723 109.573 -747.643 86.6529L-751.178 90.1884ZM-834.178 90.1884C-811.258 67.2686 -774.098 67.2686 -751.178 90.1884L-747.643 86.6529C-772.515 61.7804 -812.841 61.7804 -837.714 86.6529L-834.178 90.1884ZM-924.249 90.1884C-899.377 115.061 -859.051 115.061 -834.178 90.1884L-837.714 86.6529C-860.634 109.573 -897.794 109.573 -920.714 86.6529L-924.249 90.1884ZM-1007.25 90.1884C-984.33 67.2686 -947.169 67.2686 -924.249 90.1884L-920.714 86.6529C-945.586 61.7804 -985.913 61.7804 -1010.79 86.6529L-1007.25 90.1884ZM-1097.32 90.1884C-1072.45 115.061 -1032.12 115.061 -1007.25 90.1884L-1010.79 86.6529C-1033.7 109.573 -1070.87 109.573 -1093.79 86.6529L-1097.32 90.1884Z" fill="white"/>
</g>
</g>
<defs>
<filter id="filter0_d" x="-1130" y="0" width="1540" height="329.474" filterUnits="userSpaceOnUse" color-interpolation-filters="sRGB">
<feFlood flood-opacity="0" result="BackgroundImageFix"/>
<feColorMatrix in="SourceAlpha" type="matrix" values="0 0 0 0 0 0 0 0 0 0 0 0 0 0 0 0 0 0 127 0"/>
<feOffset dy="-10"/>
<feGaussianBlur stdDeviation="25"/>
<feColorMatrix type="matrix" values="0 0 0 0 0 0 0 0 0 0 0 0 0 0 0 0 0 0 0.25 0"/>
<feBlend mode="normal" in2="BackgroundImageFix" result="effect1_dropShadow"/>
<feBlend mode="normal" in="SourceGraphic" in2="effect1_dropShadow" result="shape"/>
</filter>
<linearGradient id="paint0_linear" x1="-360" y1="60" x2="-360" y2="289.474" gradientUnits="userSpaceOnUse">
<stop stop-color="#05429D"/>
<stop offset="1" stop-color="#448FFF"/>
</linearGradient>
<linearGradient id="paint1_linear" x1="-360" y1="60" x2="-360" y2="289.474" gradientUnits="userSpaceOnUse">
<stop stop-color="#05429D"/>
<stop offset="1" stop-color="#448FFF"/>
</linearGradient>
</defs>
</svg>
