<svg width="304" height="230" viewBox="0 0 304 230" fill="none" xmlns="http://www.w3.org/2000/svg">
<mask id="mask0" mask-type="alpha" maskUnits="userSpaceOnUse" x="-1080" y="0" width="1440" height="230">
<rect x="-1077.5" y="2.5" width="1435" height="224.474" fill="#13376D" stroke="white" stroke-width="5"/>
</mask>
<g mask="url(#mask0)">
<path fill-rule="evenodd" clip-rule="evenodd" d="M-1095.55 28.4207L-1113.48 10.4985C-1127.47 -3.49951 -1150.17 -3.49951 -1164.17 10.4985C-1186.75 33.0791 -1170.75 71.6885 -1138.82 71.6885H-1115.79V229.474H400V71.6885H418.821C450.755 71.6885 466.747 33.0791 444.167 10.4985C430.168 -3.49951 407.473 -3.49951 393.475 10.4985L375.553 28.4207C351.657 52.3168 312.913 52.3168 289.017 28.4207C265.121 4.5245 226.378 4.5245 202.482 28.4207C178.586 52.3168 139.842 52.3168 115.946 28.4207C92.0499 4.5245 53.3066 4.5245 29.4104 28.4207C5.51428 52.3168 -33.229 52.3168 -57.1252 28.4207C-81.0214 4.5245 -119.765 4.5245 -143.661 28.4207C-167.557 52.3168 -206.3 52.3168 -230.197 28.4207C-254.093 4.5245 -292.836 4.5245 -316.732 28.4207C-340.628 52.3168 -379.372 52.3168 -403.268 28.4207C-427.164 4.5245 -465.907 4.5245 -489.803 28.4207C-513.7 52.3168 -552.443 52.3168 -576.339 28.4207C-600.235 4.5245 -638.979 4.5245 -662.875 28.4207C-686.771 52.3168 -725.514 52.3168 -749.41 28.4207C-773.306 4.5245 -812.05 4.5245 -835.946 28.4207C-859.842 52.3168 -898.585 52.3168 -922.482 28.4207C-946.378 4.5245 -985.121 4.5245 -1009.02 28.4207C-1032.91 52.3168 -1071.66 52.3168 -1095.55 28.4207Z" fill="#13376D"/>
<path d="M-1113.48 10.4985L-1111.71 8.73077L-1111.71 8.73077L-1113.48 10.4985ZM-1095.55 28.4207L-1097.32 30.1884L-1097.32 30.1884L-1095.55 28.4207ZM-1164.17 10.4985L-1162.4 12.2663L-1162.4 12.2663L-1164.17 10.4985ZM-1115.79 71.6885H-1113.29V69.1885H-1115.79V71.6885ZM-1115.79 229.474H-1118.29V231.974H-1115.79V229.474ZM400 229.474V231.974H402.5V229.474H400ZM400 71.6885V69.1885H397.5V71.6885H400ZM444.167 10.4985L445.934 8.73077L445.934 8.73077L444.167 10.4985ZM393.475 10.4985L391.707 8.73076L391.707 8.73076L393.475 10.4985ZM375.553 28.4207L373.785 26.6529L373.785 26.6529L375.553 28.4207ZM289.017 28.4207L290.785 26.6529L290.785 26.6529L289.017 28.4207ZM202.482 28.4207L200.714 26.6529L200.714 26.6529L202.482 28.4207ZM115.946 28.4207L117.714 26.6529L117.714 26.6529L115.946 28.4207ZM29.4104 28.4207L27.6426 26.6529L27.6426 26.6529L29.4104 28.4207ZM-57.1252 28.4207L-58.893 30.1884L-58.893 30.1884L-57.1252 28.4207ZM-143.661 28.4207L-145.429 26.6529L-145.429 26.6529L-143.661 28.4207ZM-230.197 28.4207L-228.429 26.6529L-228.429 26.6529L-230.197 28.4207ZM-316.732 28.4207L-314.964 30.1884L-314.964 30.1884L-316.732 28.4207ZM-403.268 28.4207L-401.5 26.6529L-401.5 26.6529L-403.268 28.4207ZM-489.803 28.4207L-491.571 26.6529L-491.571 26.6529L-489.803 28.4207ZM-576.339 28.4207L-578.107 30.1884L-578.107 30.1884L-576.339 28.4207ZM-662.875 28.4207L-664.642 26.6529L-664.642 26.6529L-662.875 28.4207ZM-749.41 28.4207L-747.643 26.6529L-747.643 26.6529L-749.41 28.4207ZM-835.946 28.4207L-837.714 26.6529L-837.714 26.6529L-835.946 28.4207ZM-922.482 28.4207L-924.249 30.1884L-924.249 30.1884L-922.482 28.4207ZM-1009.02 28.4207L-1007.25 30.1884L-1007.25 30.1884L-1009.02 28.4207ZM-1115.24 12.2663L-1097.32 30.1884L-1093.79 26.6529L-1111.71 8.73077L-1115.24 12.2663ZM-1162.4 12.2663C-1149.38 -0.755435 -1128.26 -0.755431 -1115.24 12.2663L-1111.71 8.73077C-1126.68 -6.24359 -1150.96 -6.24359 -1165.93 8.73076L-1162.4 12.2663ZM-1138.82 69.1885C-1168.53 69.1885 -1183.4 33.272 -1162.4 12.2663L-1165.93 8.73076C-1190.09 32.8863 -1172.98 74.1885 -1138.82 74.1885V69.1885ZM-1115.79 69.1885H-1138.82V74.1885H-1115.79V69.1885ZM-1113.29 229.474V71.6885H-1118.29V229.474H-1113.29ZM400 226.974H-1115.79V231.974H400V226.974ZM397.5 71.6885V229.474H402.5V71.6885H397.5ZM418.821 69.1885H400V74.1885H418.821V69.1885ZM442.399 12.2663C463.404 33.272 448.527 69.1885 418.821 69.1885V74.1885C452.982 74.1885 470.09 32.8863 445.934 8.73077L442.399 12.2663ZM395.243 12.2663C408.265 -0.755436 429.377 -0.755431 442.399 12.2663L445.934 8.73077C430.96 -6.24359 406.682 -6.24359 391.707 8.73076L395.243 12.2663ZM377.321 30.1884L395.243 12.2663L391.707 8.73076L373.785 26.6529L377.321 30.1884ZM287.25 30.1884C312.122 55.0609 352.448 55.0609 377.321 30.1884L373.785 26.6529C350.865 49.5727 313.705 49.5727 290.785 26.6529L287.25 30.1884ZM204.249 30.1884C227.169 7.26857 264.33 7.26857 287.25 30.1884L290.785 26.6529C265.913 1.78042 225.586 1.78042 200.714 26.6529L204.249 30.1884ZM114.178 30.1884C139.051 55.0609 179.377 55.0609 204.249 30.1884L200.714 26.6529C177.794 49.5727 140.634 49.5727 117.714 26.6529L114.178 30.1884ZM31.1782 30.1884C54.0981 7.26857 91.2585 7.26858 114.178 30.1884L117.714 26.6529C92.8414 1.78041 52.5152 1.78042 27.6426 26.6529L31.1782 30.1884ZM-58.893 30.1884C-34.0205 55.0609 6.30574 55.0609 31.1782 30.1884L27.6426 26.6529C4.72283 49.5727 -32.4375 49.5727 -55.3575 26.6529L-58.893 30.1884ZM-141.893 30.1884C-118.973 7.26857 -81.8128 7.26858 -58.893 30.1884L-55.3575 26.6529C-80.2299 1.78041 -120.556 1.78042 -145.429 26.6529L-141.893 30.1884ZM-231.964 30.1884C-207.092 55.0609 -166.766 55.0609 -141.893 30.1884L-145.429 26.6529C-168.349 49.5727 -205.509 49.5727 -228.429 26.6529L-231.964 30.1884ZM-314.964 30.1884C-292.045 7.26857 -254.884 7.26857 -231.964 30.1884L-228.429 26.6529C-253.301 1.78042 -293.628 1.78042 -318.5 26.6529L-314.964 30.1884ZM-405.036 30.1884C-380.163 55.0609 -339.837 55.0609 -314.964 30.1884L-318.5 26.6529C-341.42 49.5727 -378.58 49.5727 -401.5 26.6529L-405.036 30.1884ZM-488.036 30.1884C-465.116 7.26857 -427.955 7.26857 -405.036 30.1884L-401.5 26.6529C-426.373 1.78042 -466.699 1.78042 -491.571 26.6529L-488.036 30.1884ZM-578.107 30.1884C-553.234 55.0609 -512.908 55.0609 -488.036 30.1884L-491.571 26.6529C-514.491 49.5727 -551.651 49.5727 -574.571 26.6529L-578.107 30.1884ZM-661.107 30.1884C-638.187 7.26857 -601.027 7.26857 -578.107 30.1884L-574.571 26.6529C-599.444 1.78042 -639.77 1.78042 -664.642 26.6529L-661.107 30.1884ZM-751.178 30.1884C-726.306 55.0609 -685.979 55.0609 -661.107 30.1884L-664.642 26.6529C-687.562 49.5727 -724.723 49.5727 -747.643 26.6529L-751.178 30.1884ZM-834.178 30.1884C-811.258 7.26857 -774.098 7.26857 -751.178 30.1884L-747.643 26.6529C-772.515 1.78042 -812.841 1.78042 -837.714 26.6529L-834.178 30.1884ZM-924.249 30.1884C-899.377 55.0609 -859.051 55.0609 -834.178 30.1884L-837.714 26.6529C-860.634 49.5727 -897.794 49.5727 -920.714 26.6529L-924.249 30.1884ZM-1007.25 30.1884C-984.33 7.26857 -947.169 7.26857 -924.249 30.1884L-920.714 26.6529C-945.586 1.78042 -985.913 1.78042 -1010.79 26.6529L-1007.25 30.1884ZM-1097.32 30.1884C-1072.45 55.0609 -1032.12 55.0609 -1007.25 30.1884L-1010.79 26.6529C-1033.7 49.5727 -1070.87 49.5727 -1093.79 26.6529L-1097.32 30.1884Z" fill="white"/>
</g>
</svg>
