<?xml version="1.0" encoding="utf-8"?>
<!-- Generator: Adobe Illustrator 23.0.6, SVG Export Plug-In . SVG Version: 6.00 Build 0)  -->
<svg version="1.1"
	 id="svg2" inkscape:version="0.43" sodipodi:docbase="C:\Documents and Settings\David Nelson\Archives\Svg" sodipodi:docname="Semaphore Zulu.svg" sodipodi:version="0.32" xmlns:cc="http://web.resource.org/cc/" xmlns:dc="http://purl.org/dc/elements/1.1/" xmlns:inkscape="http://www.inkscape.org/namespaces/inkscape" xmlns:rdf="http://www.w3.org/1999/02/22-rdf-syntax-ns#" xmlns:sodipodi="http://inkscape.sourceforge.net/DTD/sodipodi-0.dtd" xmlns:svg="http://www.w3.org/2000/svg"
	 xmlns="http://www.w3.org/2000/svg" xmlns:xlink="http://www.w3.org/1999/xlink" x="0px" y="0px" viewBox="0 0 600 315"
	 style="enable-background:new 0 0 600 315;" xml:space="preserve">
<style type="text/css">
	.st0{fill-rule:evenodd;clip-rule:evenodd;fill:#FFFFFF;}
	.st1{fill-rule:evenodd;clip-rule:evenodd;fill:#FFFFFF;stroke:#FFFFFF;}
	.st2{fill-rule:evenodd;clip-rule:evenodd;fill:#FCBB03;}
	.st3{fill-rule:evenodd;clip-rule:evenodd;fill:#FD3E1D;}
	.st4{fill-rule:evenodd;clip-rule:evenodd;fill:#FCBB03;fill-opacity:0;stroke:#FFFFFF;stroke-linejoin:round;}
	.st5{fill-rule:evenodd;clip-rule:evenodd;fill:#FFFFFF;stroke:#FFFFFF;stroke-width:1;}
</style>
<sodipodi:namedview  bordercolor="#666666" borderopacity="1.0" id="base" inkscape:current-layer="layer4" inkscape:cx="277.85308" inkscape:cy="120.82915" inkscape:document-units="px" inkscape:grid-points="true" inkscape:pageopacity="0.0" inkscape:pageshadow="2" inkscape:window-height="540" inkscape:window-width="756" inkscape:window-x="365" inkscape:window-y="436" inkscape:zoom="0.5" pagecolor="#ffffff" showgrid="true">
	</sodipodi:namedview>
<g id="layer1" inkscape:groupmode="layer" inkscape:label="Head and Torso">
	<path id="path7712" sodipodi:cx="250" sodipodi:cy="200" sodipodi:rx="25" sodipodi:ry="25" sodipodi:type="arc" class="st0" d="
		M325,25c0,13.8-11.2,25-25,25s-25-11.2-25-25s11.2-25,25-25S325,11.2,325,25z"/>
	<path id="rect7718" class="st0" d="M285,55h30c11,0,20,9.6,20,21.3v117.3c0,11.8-9,21.3-20,21.3h-30c-11,0-20-9.6-20-21.3V76.3
		C265,64.6,274,55,285,55z"/>
</g>
<g id="layer4" inkscape:groupmode="layer" inkscape:label="Left Hand">
	<g id="g11871">
		<path id="rect7724" class="st0" d="M350,55h50c5.5,0,10,4.5,10,10l0,0c0,5.5-4.5,10-10,10h-50c-5.5,0-10-4.5-10-10l0,0
			C340,59.5,344.5,55,350,55z"/>
		<rect id="rect7726" x="400" y="60" class="st1" width="200" height="10"/>
		<path id="path7785" class="st2" d="M510,160V70h90v90H510z"/>
		<path id="path7787" class="st3" d="M510,70h90v90L510,70z"/>
		<path id="path11838" class="st4" d="M510,160V70h90v90H510z"/>
	</g>
</g>
<g id="layer5" inkscape:groupmode="layer" inkscape:label="Right Hand">
	<g id="g12051">
		<path id="rect11686" class="st0" d="M289.1,57.9l35.4,35.4c3.9,3.9,3.9,10.2,0,14.1l0,0c-3.9,3.9-10.2,3.9-14.1,0l-35.4-35.4
			c-3.9-3.9-3.9-10.2,0-14.1l0,0C278.8,54,285.2,54,289.1,57.9z"/>
		
			<rect id="rect11688" x="383.1" y="71.1" transform="matrix(0.7071 -0.7071 0.7071 0.7071 -7.3001 324.5084)" class="st5" width="10" height="200"/>
		<path id="path11692" class="st2" d="M328,245.3l63.6-63.6l63.6,63.6L391.6,309L328,245.3z"/>
		<path id="path11694" class="st3" d="M391.6,181.7l63.6,63.6L391.6,309V181.7z"/>
		<path id="path12007" class="st4" d="M328,245.3l63.6-63.6l63.6,63.6L391.6,309L328,245.3z"/>
	</g>
</g>
</svg>
